<svg xmlns="http://www.w3.org/2000/svg" xmlns:xlink="http://www.w3.org/1999/xlink" width="200" height="211" fill="none" xmlns:v="https://vecta.io/nano"><style><![CDATA[.B{color-interpolation-filters:sRGB}.C{flood-opacity:0}.D{stroke-width:.3}.E{stroke-linecap:round}]]></style><path d="M139.651 79.927H68.457c-31.804 0-57.554 25.444-57.554 56.791s25.749 56.726 57.554 56.726h71.127c31.804 0 57.554-25.379 57.554-56.726.066-31.347-25.683-56.791-57.487-56.791z" fill="url(#K)"/><g filter="url(#A)"><path d="M139.157 82.669H69.155c-31.272 0-56.59 24.062-56.59 53.705s25.318 53.642 56.59 53.642h69.937c31.272 0 56.59-24 56.59-53.642.066-29.643-25.253-53.705-56.525-53.705z" fill="url(#L)"/></g><g filter="url(#B)"><path d="M140.05 98H68.058l-43.781 12.395v16.788c0 23.87 19.628 43.15 43.781 43.15h71.925c24.219 0 43.781-19.345 43.781-43.15v-16.788L140.05 98z" fill="url(#M)"/></g><path d="M140.05 94.486H68.058L24.277 106.88v16.788c0 23.87 19.628 43.151 43.781 43.151h71.925c24.219 0 43.781-19.346 43.781-43.151V106.88L140.05 94.486z" fill="url(#N)"/><use xlink:href="#p" fill="url(#O)"/><use xlink:href="#p" fill="url(#P)"/><use xlink:href="#p" fill="url(#Q)"/><path d="M140.05 56.647H68.058l-43.781 12.46v16.788c0 23.871 19.628 43.151 43.781 43.151h71.925c24.219 0 43.781-19.345 43.781-43.151V69.107l-43.714-12.46z" fill="url(#R)"/><path d="M140.045 23.264H68.054c-24.219 0-43.781 19.346-43.781 43.151 0 23.871 19.628 43.152 43.781 43.152h71.926c24.219 0 43.781-19.347 43.781-43.152.066-23.805-19.562-43.15-43.715-43.15z" fill="url(#S)"/><g filter="url(#C)"><use xlink:href="#q" fill="url(#T)"/><use xlink:href="#q" fill="url(#U)"/><use xlink:href="#q" fill="url(#V)"/></g><use xlink:href="#r" fill="url(#W)"/><use xlink:href="#r" fill="#884734"/><use xlink:href="#r" fill="url(#X)"/><g filter="url(#D)"><use xlink:href="#s" fill="url(#Y)"/><use xlink:href="#s" fill="url(#Z)"/><use xlink:href="#s" fill="url(#a)"/><use xlink:href="#s" fill="url(#b)"/><use xlink:href="#s" fill="url(#c)"/><use xlink:href="#s" fill="url(#d)"/><use xlink:href="#s" fill="url(#e)"/></g><g filter="url(#E)"><path d="M73.949 48.458v2.458c0 2.765 1.278 5.53 3.835 7.082l20.198 11.736c3.771 2.361 8.437 2.361 12.144 0l20.198-11.736c2.556-1.619 3.835-4.384 3.835-7.082v-2.458h-60.21z" fill="#733919"/></g><use xlink:href="#t" fill="url(#f)"/><use xlink:href="#t" fill="url(#g)"/><path d="M97.733 15.66L76.707 27.923c-5.322 3.082-5.322 10.689 0 13.837l21.026 12.263c3.925 2.295 8.782 2.295 12.641 0L131.4 41.761c5.323-3.082 5.323-10.689 0-13.837L110.374 15.66c-3.926-2.295-8.716-2.295-12.641 0z" fill="url(#h)"/><path d="M147.201 187.1c5.482 0 9.925-4.379 9.925-9.782s-4.443-9.782-9.925-9.782-9.925 4.38-9.925 9.782 4.444 9.782 9.925 9.782z" fill="url(#i)"/><path d="M160.692 173.848c1.969 0 3.566-1.574 3.566-3.515s-1.597-3.514-3.566-3.514-3.566 1.573-3.566 3.514 1.597 3.515 3.566 3.515z" fill="url(#j)"/><g filter="url(#F)"><path d="M127.404 88.508c4.781-4.097 23.072-9.526 21.513-26.222-4.157 11.677-6.781 15.09-17.46 17.413-8.002 1.742-8.521 7.888-8.521 11.063l.727 19.973h2.182c.586-3.463-.673-20.315 1.559-22.227z" fill="url(#k)"/></g><g filter="url(#G)"><path d="M89.574 112.579c0 .905.745 1.639 1.663 1.639s1.663-.734 1.663-1.639h-3.326zm22.977-18.121c0 .905.744 1.639 1.663 1.639s1.663-.734 1.663-1.639h-3.326zM92.9 112.579V94.458h-3.326v18.121H92.9zm0-18.121c0-2.018 1.056-4.567 2.929-6.634 1.858-2.05 4.322-3.413 6.944-3.413v-3.278c-3.821 0-7.126 1.971-9.424 4.508-2.284 2.521-3.775 5.815-3.775 8.817H92.9zm9.873-10.047c2.585 0 5.023 1.429 6.878 3.546 1.873 2.138 2.9 4.694 2.9 6.501h3.326c0-2.802-1.472-6.089-3.709-8.642-2.254-2.573-5.537-4.683-9.395-4.683v3.278z" fill="url(#l)"/></g><g filter="url(#H)" class="D E"><path d="M139.667 108.584C155.567 108.584 177.808 98.2388 182.172 75.9087" stroke="url(#m)"/></g><g filter="url(#I)" class="D E"><path d="M155.779 186.226C170.533 182.334 189.031 167.379 194.644 141.567" stroke="url(#n)"/></g><g filter="url(#J)" class="D E"><path d="M135.25 35.3979C135.25 37.2417 133.992 39.7512 131.664 41.3901C129.337 43.029 115.591 50.404 107.97 54.706C106.315 55.6405 102.513 56.2424 99.084 53.8866" stroke="url(#o)"/></g><defs><filter id="A" x="12.065" y="82.169" width="184.116" height="108.347" filterUnits="userSpaceOnUse" class="B"><feFlood class="C"/><feBlend in="SourceGraphic"/><feGaussianBlur stdDeviation=".25"/></filter><filter id="B" x="23.777" y="97.5" width="160.487" height="73.333" filterUnits="userSpaceOnUse" class="B"><feFlood class="C"/><feBlend in="SourceGraphic"/><feGaussianBlur stdDeviation=".25"/></filter><filter id="C" x="25.41" y="24.038" width="94.656" height="86.801" filterUnits="userSpaceOnUse" class="B"><feFlood class="C"/><feBlend in="SourceGraphic"/><feGaussianBlur stdDeviation=".125"/></filter><filter id="D" x="56.899" y="35.838" width="94.553" height="104.341" filterUnits="userSpaceOnUse" class="B"><feFlood class="C"/><feBlend in="SourceGraphic"/><feGaussianBlur stdDeviation=".125"/></filter><filter id="E" x="73.449" y="47.958" width="61.21" height="24.047" filterUnits="userSpaceOnUse" class="B"><feFlood class="C"/><feBlend in="SourceGraphic"/><feGaussianBlur stdDeviation=".25"/></filter><filter id="F" x="122.436" y="61.786" width="27.075" height="49.449" filterUnits="userSpaceOnUse" class="B"><feFlood class="C"/><feBlend in="SourceGraphic"/><feGaussianBlur stdDeviation=".25"/></filter><filter id="G" x="88.824" y="80.383" width="27.803" height="34.585" filterUnits="userSpaceOnUse" class="B"><feFlood class="C"/><feBlend in="SourceGraphic"/><feGaussianBlur stdDeviation=".375"/></filter><filter id="H" x="139.267" y="75.509" width="43.306" height="33.476" filterUnits="userSpaceOnUse" class="B"><feFlood class="C"/><feBlend in="SourceGraphic"/><feGaussianBlur stdDeviation=".125"/></filter><filter id="I" x="155.379" y="141.167" width="39.665" height="45.459" filterUnits="userSpaceOnUse" class="B"><feFlood class="C"/><feBlend in="SourceGraphic"/><feGaussianBlur stdDeviation=".125"/></filter><filter id="J" x="98.684" y="34.998" width="36.967" height="20.934" filterUnits="userSpaceOnUse" class="B"><feFlood class="C"/><feBlend in="SourceGraphic"/><feGaussianBlur stdDeviation=".125"/></filter><linearGradient id="K" x1="10.903" y1="139.313" x2="197.138" y2="139.313" xlink:href="#u"><stop stop-color="#bbb7bc"/><stop offset=".1" stop-color="#ad95c2"/><stop offset=".232" stop-color="#c3a0e2"/><stop offset=".804" stop-color="#c9a6e7"/><stop offset="1" stop-color="#d8d0df"/></linearGradient><linearGradient id="L" x1="16.307" y1="132.758" x2="197.969" y2="132.758" xlink:href="#u"><stop stop-color="#beb4b6"/><stop offset=".158" stop-color="#dbced5"/><stop offset=".485" stop-color="#dfcdd2"/><stop offset=".822" stop-color="#dfd1d6"/><stop offset="1" stop-color="#e3d8cd"/></linearGradient><linearGradient id="M" x1="104.021" y1="98" x2="104.021" y2="174.959" xlink:href="#u"><stop offset=".886" stop-color="#b49d9f"/><stop offset="1" stop-color="#b49d9f" stop-opacity="0"/></linearGradient><linearGradient id="N" x1="24.277" y1="126.612" x2="183.764" y2="126.612" xlink:href="#u"><stop stop-color="#b88c43"/><stop offset=".156" stop-color="#c69039"/><stop offset=".325" stop-color="#d99f3f"/><stop offset=".758" stop-color="#d9a734"/><stop offset="1" stop-color="#ecd34c"/></linearGradient><linearGradient id="O" x1="27.947" y1="118.008" x2="183.764" y2="118.008" xlink:href="#u"><stop stop-color="#a96e44"/><stop offset=".147" stop-color="#b8784c"/><stop offset=".339" stop-color="#ba774b"/><stop offset=".59" stop-color="#d68c56"/><stop offset=".819" stop-color="#e3985d"/><stop offset="1" stop-color="#eaad74"/></linearGradient><radialGradient id="P" cx="0" cy="0" r="1" gradientTransform="matrix(2.146579279247468e-15,35.0563,-88.1288,5.396332641634863e-15,104.021,104.257)" xlink:href="#u"><stop offset=".661" stop-color="#99512c"/><stop offset="1" stop-color="#a6572f" stop-opacity="0"/></radialGradient><radialGradient id="Q" cx="0" cy="0" r="1" gradientTransform="matrix(19.1223,0,0,18.7472,79.0786,128.66)" xlink:href="#u"><stop stop-color="#934a28"/><stop offset="1" stop-color="#934a28" stop-opacity="0"/></radialGradient><linearGradient id="R" x1="27.947" y1="90.147" x2="183.764" y2="90.147" xlink:href="#u"><stop stop-color="#b28c4c"/><stop offset=".133" stop-color="#b97f33"/><stop offset=".283" stop-color="#bd7628"/><stop offset=".491" stop-color="#c37c28"/><stop offset=".592" stop-color="#d08726"/><stop offset=".696" stop-color="#d6922d"/><stop offset=".816" stop-color="#dea933"/><stop offset="1" stop-color="#e5ce53"/></linearGradient><linearGradient id="S" x1="28.363" y1="58.598" x2="183.76" y2="58.598" xlink:href="#u"><stop stop-color="#cca275"/><stop offset=".144" stop-color="#d6a87a"/><stop offset=".72" stop-color="#e1b17c"/><stop offset="1" stop-color="#e6b27d"/></linearGradient><linearGradient id="T" x1="45.636" y1="53.045" x2="174.274" y2="53.045" xlink:href="#u"><stop offset=".063" stop-color="#d4a778"/><stop offset="1" stop-color="#e7b27d"/></linearGradient><radialGradient id="U" cx="0" cy="0" r="1" gradientTransform="matrix(29.930607723629745,28.27073867065018,-25.45508398112128,26.94963658667891,63.2812,65.1537)" xlink:href="#u"><stop stop-color="#b38258"/><stop offset=".768" stop-color="#bb8f65" stop-opacity="0"/></radialGradient><radialGradient id="V" cx="0" cy="0" r="1" gradientTransform="matrix(15.7967,0,0,27.8665,82.8192,102.029)" xlink:href="#u"><stop stop-color="#af774e"/><stop offset="1" stop-color="#af774e" stop-opacity="0"/></radialGradient><radialGradient id="W" cx="0" cy="0" r="1" gradientTransform="translate(133.951 66.7927) rotate(157.896) scale(89.2866 81.7776)" xlink:href="#u"><stop offset=".025" stop-color="#9d623c"/><stop offset="1" stop-color="#82523e"/></radialGradient><linearGradient id="X" x1="61.619" y1="78.675" x2="151.56" y2="78.675" xlink:href="#u"><stop stop-color="#804b33"/><stop offset="1" stop-color="#9f5e3e"/></linearGradient><radialGradient id="Y" cx="0" cy="0" r="1" gradientTransform="translate(133.333 66.0903) rotate(158.398) scale(87.1352 78.3586)" xlink:href="#u"><stop offset=".025" stop-color="#9d623c"/><stop offset="1" stop-color="#82523e"/></radialGradient><radialGradient id="Z" cx="0" cy="0" r="1" gradientTransform="matrix(23.00174240641179,12.323297135064037,-6.532104497142822,12.192336463877893,88.3475,59.8309)" xlink:href="#u"><stop stop-color="#764326"/><stop offset="1" stop-color="#733e21" stop-opacity="0"/></radialGradient><radialGradient id="a" cx="0" cy="0" r="1" gradientTransform="matrix(-24.11066530504584,27.4513576392509,-26.711733855231216,-23.46105002034851,69.1009,45.0774)" xlink:href="#u"><stop stop-color="#724d3d"/><stop offset="1" stop-color="#724c3b" stop-opacity="0"/></radialGradient><radialGradient id="b" cx="0" cy="0" r="1" gradientTransform="matrix(-15.796660640361585,-4.097356339550071,2.6770127884104022,-10.32076759842441,121.688,116.779)" xlink:href="#u"><stop stop-color="#8a4654"/><stop offset="1" stop-color="#8c4756" stop-opacity="0"/></radialGradient><radialGradient id="c" cx="0" cy="0" r="1" gradientTransform="matrix(1.3547593983227638e-15,-22.1249,8.44952,5.173838811165772e-16,85.1051,131.119)" xlink:href="#u"><stop stop-color="#884b4f"/><stop offset="1" stop-color="#864453" stop-opacity="0"/></radialGradient><radialGradient id="d" cx="0" cy="0" r="1" gradientTransform="matrix(-1.2470990806065143,7.1700835306187605,-4.475842918457026,-0.7784873864733398,90.0942,106.126)" xlink:href="#u"><stop stop-color="#a37665"/><stop offset="1" stop-color="#a57867" stop-opacity="0"/></radialGradient><radialGradient id="e" cx="0" cy="0" r="1" gradientTransform="matrix(-1.8706399485003768,6.145815798010424,-4.3210034851573145,-1.3152105436614843,123.246,103.975)" xlink:href="#u"><stop stop-color="#a67968"/><stop offset="1" stop-color="#a87b68" stop-opacity="0"/></radialGradient><linearGradient id="f" x1="73.674" y1="49.919" x2="135.392" y2="49.919" xlink:href="#u"><stop stop-color="#c7a22b"/><stop offset="1" stop-color="#e8c12e"/></linearGradient><radialGradient id="g" cx="0" cy="0" r="1" gradientTransform="matrix(1.2042319370055667e-15,19.6666,-22.8969,1.4020307647698515e-15,104.053,72.5287)" xlink:href="#u"><stop stop-color="#dba529"/><stop offset="1" stop-color="#d9a32b" stop-opacity="0"/></radialGradient><linearGradient id="h" x1="93.367" y1="17.882" x2="113.978" y2="51.083" xlink:href="#u"><stop offset=".008" stop-color="#cfba3a"/><stop offset=".085" stop-color="#d5c137"/><stop offset=".934" stop-color="#e7ce37"/></linearGradient><radialGradient id="i" cx="0" cy="0" r="1" gradientTransform="translate(154.419 177.318) rotate(180) scale(19.8497 18.5297)" xlink:href="#u"><stop stop-color="#a06740"/><stop offset=".705" stop-color="#8e512e"/></radialGradient><radialGradient id="j" cx="0" cy="0" r="1" gradientTransform="translate(163.285 170.333) rotate(180) scale(7.13191 6.6576)" xlink:href="#u"><stop stop-color="#a06740"/><stop offset=".705" stop-color="#8e512e"/></radialGradient><radialGradient id="k" cx="0" cy="0" r="1" gradientTransform="translate(135.973 86.5103) rotate(90) scale(51.1639 27.5363)" xlink:href="#u"><stop stop-color="#ad7c68"/><stop offset="1" stop-color="#ac7b65" stop-opacity="0"/></radialGradient><linearGradient id="l" x1="90.925" y1="89.345" x2="115.66" y2="89.345" xlink:href="#u"><stop stop-color="#a27764"/><stop offset=".462" stop-color="#9c6f5e"/><stop offset=".618" stop-color="#6f3f2e"/></linearGradient><radialGradient id="m" cx="0" cy="0" r="1" gradientTransform="translate(168.662 95.8827) rotate(-43.1353) scale(23.0711 12.2103)" xlink:href="#u"><stop stop-color="#efb992"/><stop offset=".449" stop-color="#f1bd92"/><stop offset=".988" stop-color="#f0bc8f" stop-opacity="0"/></radialGradient><radialGradient id="n" cx="0" cy="0" r="1" gradientTransform="translate(176.976 170.452) rotate(-51.1009) scale(37.1156 19.7221)" xlink:href="#u"><stop stop-color="#ebe1f0"/><stop offset=".449" stop-color="#ebe2f0"/><stop offset=".988" stop-color="#e8dfec" stop-opacity="0"/></radialGradient><radialGradient id="o" cx="0" cy="0" r="1" gradientTransform="translate(118.57 48.7651) rotate(-29.5276) scale(22.0698 10.8799)" xlink:href="#u"><stop stop-color="#f0d151"/><stop offset=".449" stop-color="#f2d359"/><stop offset=".988" stop-color="#f3d357" stop-opacity="0"/></radialGradient><path id="p" d="M140.05 61.106H68.058c-24.219 0-43.781 19.346-43.781 43.151 0 23.871 19.628 43.151 43.781 43.151h71.925c24.219 0 43.781-19.346 43.781-43.151.067-23.871-19.562-43.151-43.714-43.151z"/><path id="q" d="M119.817 24.288H68.681c-23.799 0-43.021 19.346-43.021 43.151 0 23.871 19.287 43.15 43.021 43.15h51.136V24.288z"/><path id="r" d="M126.875 41.498h-45.71c-13.574 0-24.552 10.821-24.552 24.199 0 10.952 7.385 20.264 17.566 23.215 3.06.918 5.124 3.738 5.124 6.885v38.101c0 4.657 3.659 8.591 8.383 8.723 4.791.065 8.716-3.738 8.716-8.395V97.043c0-3.935 3.193-7.083 7.186-7.083s7.185 3.148 7.185 7.083v10.821c0 4.655 3.66 8.591 8.384 8.722 4.79.065 8.717-3.738 8.717-8.394V96.125c0-3.213 2.129-6.099 5.322-6.951 10.579-2.689 18.364-12.198 18.364-23.412-.067-13.444-11.112-24.264-24.685-24.264z"/><path id="s" d="M57.149 65.107c0 10.457 7.677 18.004 17.647 20.821 2.997.877 5.017 3.569 5.017 6.575v39.199c0 4.446 3.584 8.1 8.21 8.226 4.692.062 7.682-2.418 7.682-6.863V93.12c0-3.757 3.982-6.763 7.891-6.763s8.113 3.006 8.113 6.763v14.03c0 4.446 2.509 8.376 7.135 8.502 4.692.063 8.536-4.056 8.536-8.502V92.994c0-3.069 2.085-5.823 5.213-6.637 10.36-2.567 18.608-10.543 18.608-21.25 0-38.978-94.053-38.403-94.053 0z"/><path id="t" d="M113.369 34.344l-2.994-1.771c-3.926-2.295-8.783-2.295-12.642 0l-2.994 1.771H72.715v13.772c0 2.689 1.331 5.377 3.992 6.886l21.026 12.263c3.925 2.296 8.782 2.296 12.642 0L131.4 55.001c2.661-1.574 3.992-4.263 3.992-6.886V34.344h-22.023z"/><linearGradient id="u" gradientUnits="userSpaceOnUse"/></defs></svg>