<svg xmlns="http://www.w3.org/2000/svg" xmlns:xlink="http://www.w3.org/1999/xlink" width="199" height="239" fill="none" xmlns:v="https://vecta.io/nano"><style><![CDATA[.B{color-interpolation-filters:sRGB}.C{flood-opacity:0}.D{fill:#ff5a6d}]]></style><path d="M132.126 37.568c0-6.05-3.438-8.015-9.04-9.284-.97-.224-1.792-.896-2.165-1.793-1.718-5.004-4.552-11.553-12.77-11.553S97.03 21.561 95.237 26.491c-.299.971-1.12 1.568-2.091 1.793-5.676 1.27-9.511 4.743-9.511 9.284 0 6.05 4.873 11.054 10.475 12.324.971.224 1.793.896 2.166 1.792 1.718 4.929 6.423 8.44 11.95 8.44s10.157-3.51 11.95-8.44c.299-.971 1.195-1.643 2.166-1.792 5.527-1.27 9.784-6.349 9.784-12.324z" fill="url(#o)"/><g filter="url(#A)"><use xlink:href="#BH" fill="url(#p)"/><use xlink:href="#BH" fill="url(#q)"/></g><path d="M103.383 59.825c0-6.349-4.406-9.635-10.381-10.979-1.046-.224-1.867-.896-2.241-1.942-1.792-5.153-3.917-10.755-12.473-10.755-7.607 0-10.991 5.602-12.858 10.755-.299 1.046-1.195 1.718-2.241 1.942-5.9 1.344-9.996 6.295-9.996 10.979 0 7.219 4.407 11.576 10.307 12.921 1.046.224 1.942.896 2.241 1.942 1.792 5.154 6.722 8.813 12.473 8.813s10.68-3.66 12.473-8.813c.373-.971 1.195-1.718 2.241-1.942 5.975-1.344 10.456-6.573 10.456-12.921z" fill="url(#r)"/><g filter="url(#B)"><use xlink:href="#BI" fill="#dbb080"/><use xlink:href="#BI" fill="url(#s)"/><use xlink:href="#BI" fill="url(#t)"/></g><g filter="url(#C)"><path d="M119.987 27.975c0 7.017-5.233 12.706-11.686 12.706s-12.219-5.689-12.219-12.706c0-5.081 5.025-12.588 12.219-12.588 6.453 0 11.686 5.571 11.686 12.588z" fill="url(#u)"/></g><g filter="url(#D)"><path d="M94.12 74.088c6.587 0 11.928-5.561 11.928-12.42s-5.341-12.42-11.928-12.42-11.928 5.561-11.928 12.42 5.34 12.42 11.928 12.42z" fill="url(#v)"/></g><g filter="url(#E)"><path d="M90.287 49.443c0 7.07-5.351 12.802-11.952 12.802s-12.496-5.732-12.496-12.802c0-5.119 5.138-12.683 12.496-12.683 6.601 0 11.952 5.612 11.952 12.683z" fill="url(#w)"/></g><g filter="url(#F)"><use xlink:href="#BJ" fill="url(#x)"/><use xlink:href="#BJ" fill="url(#y)"/></g><g filter="url(#G)"><path d="M77.849 73.726a12.84 12.84 0 0 0 12.837-12.837 12.84 12.84 0 0 0-12.837-12.837 12.84 12.84 0 0 0-12.837 12.837 12.84 12.84 0 0 0 12.837 12.837z" fill="url(#z)"/></g><g filter="url(#H)"><path d="M122.175 50.009c5.817 0 10.533-4.703 10.533-10.505S127.992 29 122.175 29s-10.532 4.703-10.532 10.505 4.716 10.505 10.532 10.505z" fill="url(#AA)"/></g><g filter="url(#I)"><path d="M107.881 53.519a12.84 12.84 0 0 0 12.837-12.837 12.84 12.84 0 0 0-12.837-12.837 12.84 12.84 0 0 0-12.837 12.837 12.84 12.84 0 0 0 12.837 12.837z" fill="url(#AB)"/><path d="M107.881 53.519a12.84 12.84 0 0 0 12.837-12.837 12.84 12.84 0 0 0-12.837-12.837 12.84 12.84 0 0 0-12.837 12.837 12.84 12.84 0 0 0 12.837 12.837z" fill="url(#AC)"/><path d="M107.881 53.519a12.84 12.84 0 0 0 12.837-12.837 12.84 12.84 0 0 0-12.837-12.837 12.84 12.84 0 0 0-12.837 12.837 12.84 12.84 0 0 0 12.837 12.837z" fill="url(#AD)"/></g><path d="M160.073 59.825c0-6.349-3.9-10.851-9.875-12.195-1.046-.224-1.867-.896-2.241-1.942-1.792-5.153-5.213-10.795-12.472-10.795-6.687 0-8.921 4.916-10.714 10.069-.373.971-1.195 1.718-2.24 1.942-5.9 1.344-12.141 6.572-12.141 12.921s4.406 11.576 10.381 12.921c1.046.224 1.867.896 2.241 1.942 1.792 5.153 6.722 8.813 12.473 8.813s10.68-3.66 12.472-8.813c.374-.971 1.195-1.718 2.241-1.942 5.975-1.344 9.875-6.573 9.875-12.921z" fill="url(#AE)"/><use xlink:href="#BK" fill="#e1c398"/><use xlink:href="#BK" fill="url(#AF)"/><g filter="url(#J)"><use xlink:href="#BL" fill="url(#AG)"/><use xlink:href="#BL" fill="url(#AH)"/><use xlink:href="#BL" fill="url(#AI)"/></g><g filter="url(#K)"><path d="M49.742 99.399c6.588 0 11.928-5.302 11.928-11.843s-5.34-11.843-11.928-11.843-11.928 5.302-11.928 11.843 5.34 11.843 11.928 11.843z" fill="url(#AJ)"/><path d="M49.742 99.399c6.588 0 11.928-5.302 11.928-11.843s-5.34-11.843-11.928-11.843-11.928 5.302-11.928 11.843 5.34 11.843 11.928 11.843z" fill="url(#AK)"/></g><g filter="url(#L)"><path d="M74.507 76.307c0 7.082-5.36 12.823-11.972 12.823s-12.517-5.741-12.517-12.823c0-5.128 5.147-12.704 12.517-12.704 6.612 0 11.972 5.622 11.972 12.704z" fill="url(#AL)"/></g><g filter="url(#M)"><path d="M147.061 47.91c0 6.745-5.029 12.213-11.233 12.213s-11.744-5.468-11.744-12.213c0-4.884 4.83-12.317 11.744-12.317 6.204 0 11.233 5.571 11.233 12.317z" fill="url(#AM)"/></g><path d="M176.957 87.609c0-6.349-4.024-10.993-9.999-12.338-1.046-.224-1.867-.896-2.241-1.942-1.792-5.153-4.644-10.662-12.855-10.662-5.751 0-10.68 4.925-12.473 10.078-.373.971-1.195 1.718-2.24 1.942-5.901 1.345-10.382 6.573-10.382 12.921s4.407 11.576 10.382 12.92c1.045.224 1.867.897 2.24 1.942 1.793 5.154 6.722 8.813 12.473 8.813s10.68-3.659 12.473-8.813c.373-.971 1.195-1.718 2.241-1.942 5.975-1.344 10.381-6.647 10.381-12.92z" fill="url(#AN)"/><g filter="url(#N)"><path d="M135.517 71.334c6.705 0 12.141-5.434 12.141-12.137s-5.436-12.137-12.141-12.137-12.142 5.434-12.142 12.137 5.436 12.137 12.142 12.137z" fill="url(#AO)"/></g><g filter="url(#O)"><path d="M164.163 76.35c0 7.248-5.709 13.123-12.457 13.123s-12.775-5.875-12.775-13.123c0-5.248 5.252-13.237 12.775-13.237 6.748 0 12.457 5.989 12.457 13.237z" fill="url(#AP)"/></g><path d="M139.767 56.987c0-6.05-4.668-9.87-10.269-11.14-.971-.224-1.793-.896-2.166-1.792-1.718-4.929-3.977-10.795-12.401-10.795s-10.157 5.865-11.95 10.795c-.298.971-1.195 1.643-2.166 1.792-5.526 1.27-10.879 5.09-10.879 11.14 0 9.007 5.352 11.054 10.954 12.323.971.224 1.793.896 2.166 1.793 1.718 4.929 6.423 8.44 11.95 8.44s10.158-3.51 11.95-8.44c.299-.971 1.195-1.643 2.166-1.793 5.602-1.27 10.645-6.274 10.645-12.323z" fill="url(#AQ)"/><g filter="url(#P)"><use xlink:href="#BM" fill="#f4cca9"/><use xlink:href="#BM" fill="url(#AR)"/><use xlink:href="#BM" fill="url(#AS)"/></g><g filter="url(#Q)"><use xlink:href="#BN" fill="url(#AT)"/><use xlink:href="#BN" fill="url(#AU)"/><use xlink:href="#BN" fill="url(#AV)"/></g><g filter="url(#R)"><use xlink:href="#BO" fill="url(#AW)"/><use xlink:href="#BO" fill="url(#AX)"/><use xlink:href="#BO" fill="url(#AY)"/></g><g filter="url(#S)"><path d="M152.604 100.508a12.84 12.84 0 0 0 12.837-12.837 12.84 12.84 0 0 0-12.837-12.837 12.84 12.84 0 0 0-12.836 12.837 12.84 12.84 0 0 0 12.836 12.837z" fill="url(#AZ)"/></g><path d="M161.308 86.563c0-6.348-4.407-9.635-10.382-10.979-1.045-.224-1.867-.896-2.24-1.942-1.793-5.153-5.009-10.755-12.473-10.755s-11.026 5.602-12.819 10.755c-.373.971-1.195 1.718-2.24 1.942-5.901 1.344-10.036 4.631-10.036 10.979s4.406 11.577 10.381 12.921c1.046.224 1.868.896 2.241 1.942 1.793 5.153 6.722 8.813 12.473 8.813s10.68-3.66 12.473-8.813c.373-.971 1.195-1.718 2.24-1.942 5.975-1.344 10.382-6.573 10.382-12.921z" fill="url(#Aa)"/><g filter="url(#T)"><path d="M148.133 76.503c0 7.247-5.708 13.123-12.457 13.123s-12.775-5.876-12.775-13.123c0-5.248 5.253-13.237 12.775-13.237 6.749 0 12.457 5.989 12.457 13.237z" fill="url(#Ab)"/></g><g filter="url(#U)"><path d="M131.281 89.989c0 7.248-5.71 13.122-12.458 13.122s-12.776-5.874-12.776-13.122c0-5.248 5.254-13.237 12.776-13.237 6.748 0 12.458 5.989 12.458 13.237z" fill="#fce1bb"/></g><g filter="url(#V)"><use xlink:href="#BP" fill="url(#Ac)"/><use xlink:href="#BP" fill="url(#Ad)"/><use xlink:href="#BP" fill="url(#Ae)"/></g><g filter="url(#W)"><path d="M127.188 45.802c0 6.927-5.165 12.543-11.537 12.543s-12.06-5.616-12.06-12.543c0-5.016 4.959-12.426 12.06-12.426 6.372 0 11.537 5.499 11.537 12.426z" fill="url(#Af)"/></g><g filter="url(#X)"><path d="M102.515 70.419c6.532 0 11.828-5.392 11.828-12.045s-5.296-12.044-11.828-12.044-11.829 5.392-11.829 12.045 5.296 12.045 11.829 12.045z" fill="url(#Ag)"/></g><g filter="url(#Y)"><use xlink:href="#BQ" fill="#dbb080"/><use xlink:href="#BQ" fill="url(#Ah)"/><use xlink:href="#BQ" fill="url(#Ai)"/></g><g filter="url(#Z)"><path d="M114.969 70.419c7.089 0 12.837-5.732 12.837-12.803s-5.748-12.803-12.837-12.803-12.837 5.732-12.837 12.803 5.747 12.803 12.837 12.803z" fill="url(#Aj)"/></g><g filter="url(#a)"><path d="M136.213 101.967A12.84 12.84 0 0 0 149.05 89.13a12.84 12.84 0 0 0-12.837-12.837 12.84 12.84 0 0 0-12.837 12.837 12.84 12.84 0 0 0 12.837 12.837z" fill="url(#Ak)"/></g><path d="M116.376 77.675c-1.494-.448-2.764-1.568-3.212-3.062-1.792-5.228-5.134-10.136-12.547-10.136s-10.83 4.983-12.548 10.361c-.523 1.419-1.643 2.539-3.062 2.987-5.676 1.867-10.314 7.394-9.716 13.817.597 6.274 6.355 11.277 12.629 11.875 5.676.523 10.68-2.539 13.07-7.245 2.316 4.706 7.394 7.768 13.071 7.245 6.348-.598 11.427-5.676 11.95-12.025.373-6.498-3.81-12.099-9.635-13.817z" fill="url(#Al)"/><g filter="url(#b)"><use xlink:href="#BR" fill="url(#Am)"/><use xlink:href="#BR" fill="url(#An)"/><use xlink:href="#BR" fill="url(#Ao)"/><use xlink:href="#BR" fill="url(#Ap)"/></g><g filter="url(#c)"><path d="M113.011 77.713c0 7.248-5.71 13.123-12.458 13.123s-12.775-5.875-12.775-13.123c0-5.248 5.254-13.237 12.775-13.237 6.748 0 12.458 5.989 12.458 13.237z" fill="url(#Aq)"/></g><g filter="url(#d)"><path d="M88.053 101.967c6.694 0 12.12-5.388 12.12-12.035s-5.426-12.035-12.12-12.035-12.12 5.388-12.12 12.035 5.427 12.035 12.12 12.035z" fill="url(#Ar)"/></g><g filter="url(#e)"><path d="M61.67 99.4a12.84 12.84 0 0 0 12.837-12.837A12.84 12.84 0 0 0 61.67 73.726a12.84 12.84 0 0 0-12.837 12.837A12.84 12.84 0 0 0 61.67 99.4z" fill="url(#As)"/></g><use xlink:href="#BS" fill="url(#At)"/><use xlink:href="#BS" fill="url(#Au)"/><g filter="url(#f)"><path d="M62.613 105.805l9.635 115.924h23.004l-4.929-117.491c-.299-7.12-6.423-12.746-13.892-12.746-8.066 0-14.489 6.551-13.817 14.313z" fill="#e7c8ff"/></g><use xlink:href="#BT" fill="url(#Av)"/><use xlink:href="#BT" fill="url(#Aw)"/><g filter="url(#g)"><use xlink:href="#BU" fill="url(#Ax)"/><use xlink:href="#BU" fill="url(#Ay)"/></g><g filter="url(#h)"><path d="M100.173 101.967A12.84 12.84 0 0 0 113.01 89.13a12.84 12.84 0 0 0-12.837-12.837A12.84 12.84 0 0 0 87.336 89.13a12.84 12.84 0 0 0 12.837 12.837z" fill="url(#Az)"/></g><use xlink:href="#BV" fill="url(#BA)"/><use xlink:href="#BV" fill="url(#BB)"/><g filter="url(#i)"><path d="M127.442 104.329l-4.855 118.333h23.004l9.634-116.754c.673-7.746-5.751-14.416-13.892-14.416-7.468 0-13.593 5.666-13.891 12.837z" fill="#e7c8ff"/></g><use xlink:href="#BW" fill="url(#BC)"/><use xlink:href="#BW" fill="url(#BD)"/><g filter="url(#j)"><path d="M170.312 91.492c-7.917 0-14.06 5.767-14.732 13.245l-9.336 116.992h10.998c5.228 0 7.553-3.632 8.374-8.545l16.922-105.03c1.494-8.758-2.965-16.662-12.226-16.662z" fill="url(#BE)"/></g><path d="M108.919 88.636c-10.297 0-18.594 8.529-18.15 18.748l4.593 116.754h27.114l4.592-116.754c.371-10.219-7.852-18.748-18.149-18.748z" fill="url(#BF)"/><g filter="url(#k)"><path d="M108.755 91.492c-9.797 0-17.691 8.349-17.267 18.353l4.369 112.934h25.795l4.37-112.934c.353-10.004-7.471-18.353-17.267-18.353z" fill="url(#BG)"/></g><g filter="url(#l)" class="D"><path d="M122.788 102.054c3.786-.961-3.389-11.029-13.479-11.029 13.653 6.419 8.375 12.323 13.479 11.029z"/></g><g filter="url(#m)" class="D"><path d="M182.56 101.093c3.16-.802-2.827-9.203-11.248-9.203 11.395 5.357 6.99 10.283 11.248 9.203z"/></g><g filter="url(#n)" class="D"><path d="M59.653 101.295c3.639-1.419-5.624-10.695-15.638-9.452 16.338 5.018 11.999 10.871 15.638 9.453z"/></g><defs><filter id="A" x="82.965" y="28.387" width="24.157" height="24.589" filterUnits="userSpaceOnUse" class="B"><feFlood class="C"/><feBlend in="SourceGraphic"/><feGaussianBlur stdDeviation=".125"/></filter><filter id="B" x="67.631" y="67.295" width="23.369" height="22.399" filterUnits="userSpaceOnUse" class="B"><feFlood class="C"/><feBlend in="SourceGraphic"/><feGaussianBlur stdDeviation=".125"/></filter><filter id="C" x="95.833" y="15.137" width="24.405" height="25.795" filterUnits="userSpaceOnUse" class="B"><feFlood class="C"/><feBlend in="SourceGraphic"/><feGaussianBlur stdDeviation=".125"/></filter><filter id="D" x="81.942" y="48.997" width="24.356" height="25.341" filterUnits="userSpaceOnUse" class="B"><feFlood class="C"/><feBlend in="SourceGraphic"/><feGaussianBlur stdDeviation=".125"/></filter><filter id="E" x="65.589" y="36.51" width="24.948" height="25.985" filterUnits="userSpaceOnUse" class="B"><feFlood class="C"/><feBlend in="SourceGraphic"/><feGaussianBlur stdDeviation=".125"/></filter><filter id="F" x="53.743" y="48.997" width="24.356" height="24.186" filterUnits="userSpaceOnUse" class="B"><feFlood class="C"/><feBlend in="SourceGraphic"/><feGaussianBlur stdDeviation=".125"/></filter><filter id="G" x="64.762" y="47.802" width="26.174" height="26.174" filterUnits="userSpaceOnUse" class="B"><feFlood class="C"/><feBlend in="SourceGraphic"/><feGaussianBlur stdDeviation=".125"/></filter><filter id="H" x="111.393" y="28.75" width="21.565" height="21.509" filterUnits="userSpaceOnUse" class="B"><feFlood class="C"/><feBlend in="SourceGraphic"/><feGaussianBlur stdDeviation=".125"/></filter><filter id="I" x="94.794" y="27.595" width="26.174" height="26.174" filterUnits="userSpaceOnUse" class="B"><feFlood class="C"/><feBlend in="SourceGraphic"/><feGaussianBlur stdDeviation=".125"/></filter><filter id="J" x="134.982" y="47.792" width="24.386" height="24.066" filterUnits="userSpaceOnUse" class="B"><feFlood class="C"/><feBlend in="SourceGraphic"/><feGaussianBlur stdDeviation=".125"/></filter><filter id="K" x="37.564" y="75.463" width="24.356" height="24.186" filterUnits="userSpaceOnUse" class="B"><feFlood class="C"/><feBlend in="SourceGraphic"/><feGaussianBlur stdDeviation=".125"/></filter><filter id="L" x="49.767" y="63.353" width="24.989" height="26.027" filterUnits="userSpaceOnUse" class="B"><feFlood class="C"/><feBlend in="SourceGraphic"/><feGaussianBlur stdDeviation=".125"/></filter><filter id="M" x="123.834" y="35.343" width="23.477" height="25.03" filterUnits="userSpaceOnUse" class="B"><feFlood class="C"/><feBlend in="SourceGraphic"/><feGaussianBlur stdDeviation=".125"/></filter><filter id="N" x="123.125" y="46.81" width="24.783" height="24.773" filterUnits="userSpaceOnUse" class="B"><feFlood class="C"/><feBlend in="SourceGraphic"/><feGaussianBlur stdDeviation=".125"/></filter><filter id="O" x="138.681" y="62.863" width="25.732" height="26.859" filterUnits="userSpaceOnUse" class="B"><feFlood class="C"/><feBlend in="SourceGraphic"/><feGaussianBlur stdDeviation=".125"/></filter><filter id="P" x="103.166" y="65.096" width="23.373" height="22.394" filterUnits="userSpaceOnUse" class="B"><feFlood class="C"/><feBlend in="SourceGraphic"/><feGaussianBlur stdDeviation=".125"/></filter><filter id="Q" x="151.288" y="75.546" width="25.224" height="23.525" filterUnits="userSpaceOnUse" class="B"><feFlood class="C"/><feBlend in="SourceGraphic"/><feGaussianBlur stdDeviation=".125"/></filter><filter id="R" x="114.093" y="45.671" width="25.399" height="25.065" filterUnits="userSpaceOnUse" class="B"><feFlood class="C"/><feBlend in="SourceGraphic"/><feGaussianBlur stdDeviation=".125"/></filter><filter id="S" x="139.518" y="74.584" width="26.174" height="26.174" filterUnits="userSpaceOnUse" class="B"><feFlood class="C"/><feBlend in="SourceGraphic"/><feGaussianBlur stdDeviation=".125"/></filter><filter id="T" x="122.651" y="63.016" width="25.732" height="26.859" filterUnits="userSpaceOnUse" class="B"><feFlood class="C"/><feBlend in="SourceGraphic"/><feGaussianBlur stdDeviation=".125"/></filter><filter id="U" x="105.797" y="76.502" width="25.733" height="26.859" filterUnits="userSpaceOnUse" class="B"><feFlood class="C"/><feBlend in="SourceGraphic"/><feGaussianBlur stdDeviation=".125"/></filter><filter id="V" x="134.982" y="75.546" width="25.75" height="24.015" filterUnits="userSpaceOnUse" class="B"><feFlood class="C"/><feBlend in="SourceGraphic"/><feGaussianBlur stdDeviation=".125"/></filter><filter id="W" x="103.341" y="33.126" width="24.097" height="25.469" filterUnits="userSpaceOnUse" class="B"><feFlood class="C"/><feBlend in="SourceGraphic"/><feGaussianBlur stdDeviation=".125"/></filter><filter id="X" x="90.436" y="46.08" width="24.157" height="24.589" filterUnits="userSpaceOnUse" class="B"><feFlood class="C"/><feBlend in="SourceGraphic"/><feGaussianBlur stdDeviation=".125"/></filter><filter id="Y" x="112.758" y="93.786" width="23.369" height="22.399" filterUnits="userSpaceOnUse" class="B"><feFlood class="C"/><feBlend in="SourceGraphic"/><feGaussianBlur stdDeviation=".125"/></filter><filter id="Z" x="101.882" y="44.563" width="26.174" height="26.106" filterUnits="userSpaceOnUse" class="B"><feFlood class="C"/><feBlend in="SourceGraphic"/><feGaussianBlur stdDeviation=".125"/></filter><filter id="a" x="123.126" y="76.043" width="26.174" height="26.174" filterUnits="userSpaceOnUse" class="B"><feFlood class="C"/><feBlend in="SourceGraphic"/><feGaussianBlur stdDeviation=".125"/></filter><filter id="b" x="99.032" y="77.662" width="26.511" height="26.162" filterUnits="userSpaceOnUse" class="B"><feFlood class="C"/><feBlend in="SourceGraphic"/><feGaussianBlur stdDeviation=".125"/></filter><filter id="c" x="87.528" y="64.226" width="25.732" height="26.859" filterUnits="userSpaceOnUse" class="B"><feFlood class="C"/><feBlend in="SourceGraphic"/><feGaussianBlur stdDeviation=".125"/></filter><filter id="d" x="75.683" y="77.647" width="24.741" height="24.57" filterUnits="userSpaceOnUse" class="B"><feFlood class="C"/><feBlend in="SourceGraphic"/><feGaussianBlur stdDeviation=".125"/></filter><filter id="e" x="48.583" y="73.476" width="26.174" height="26.174" filterUnits="userSpaceOnUse" class="B"><feFlood class="C"/><feBlend in="SourceGraphic"/><feGaussianBlur stdDeviation=".125"/></filter><filter id="f" x="62.315" y="91.242" width="33.187" height="130.736" filterUnits="userSpaceOnUse" class="B"><feFlood class="C"/><feBlend in="SourceGraphic"/><feGaussianBlur stdDeviation=".125"/></filter><filter id="g" x="33.581" y="90.775" width="37.642" height="130.503" filterUnits="userSpaceOnUse" class="B"><feFlood class="C"/><feBlend in="SourceGraphic"/><feGaussianBlur stdDeviation=".125"/></filter><filter id="h" x="87.086" y="76.043" width="26.174" height="26.174" filterUnits="userSpaceOnUse" class="B"><feFlood class="C"/><feBlend in="SourceGraphic"/><feGaussianBlur stdDeviation=".125"/></filter><filter id="i" x="122.337" y="91.242" width="33.187" height="131.67" filterUnits="userSpaceOnUse" class="B"><feFlood class="C"/><feBlend in="SourceGraphic"/><feGaussianBlur stdDeviation=".125"/></filter><filter id="j" x="145.994" y="91.242" width="37.077" height="130.736" filterUnits="userSpaceOnUse" class="B"><feFlood class="C"/><feBlend in="SourceGraphic"/><feGaussianBlur stdDeviation=".125"/></filter><filter id="k" x="91.221" y="91.242" width="35.063" height="131.786" filterUnits="userSpaceOnUse" class="B"><feFlood class="C"/><feBlend in="SourceGraphic"/><feGaussianBlur stdDeviation=".125"/></filter><filter id="l" x="109.009" y="90.725" width="15.106" height="11.808" filterUnits="userSpaceOnUse" class="B"><feFlood class="C"/><feBlend in="SourceGraphic"/><feGaussianBlur stdDeviation=".15"/></filter><filter id="m" x="171.012" y="91.59" width="12.706" height="9.953" filterUnits="userSpaceOnUse" class="B"><feFlood class="C"/><feBlend in="SourceGraphic"/><feGaussianBlur stdDeviation=".15"/></filter><filter id="n" x="43.716" y="91.428" width="17.046" height="10.383" filterUnits="userSpaceOnUse" class="B"><feFlood class="C"/><feBlend in="SourceGraphic"/><feGaussianBlur stdDeviation=".15"/></filter><linearGradient id="o" x1="86.027" y1="32.209" x2="130.14" y2="32.209" xlink:href="#BX"><stop offset=".349" stop-color="#a29175"/><stop offset=".635" stop-color="#cdc2ae"/><stop offset="1" stop-color="#e0cfaf"/></linearGradient><radialGradient id="p" cx="0" cy="0" r="1" gradientTransform="translate(101.954 37.1817) rotate(127.051) scale(22.2587 22.1162)" xlink:href="#BX"><stop stop-color="#fffad9"/><stop offset=".639" stop-color="#d5b693"/><stop offset="1" stop-color="#ba8f62"/></radialGradient><radialGradient id="q" cx="0" cy="0" r="1" gradientTransform="matrix(1.2531513016895848,11.319746243846355,-25.100557531234053,2.7787545467726127,95.0436,48.43)" xlink:href="#BX"><stop stop-color="#99744a"/><stop offset=".806" stop-color="#b38d63" stop-opacity="0"/></radialGradient><linearGradient id="r" x1="55.669" y1="54.248" x2="101.327" y2="54.248" xlink:href="#BX"><stop offset=".349" stop-color="#a29175"/><stop offset=".635" stop-color="#f9dfb1"/><stop offset="1" stop-color="#e0cfaf"/></linearGradient><radialGradient id="s" cx="0" cy="0" r="1" gradientTransform="matrix(-9.335879520816313,15.710293554953152,-12.310404090141622,-7.3154870745169385,77.8588,62.7842)" xlink:href="#BX"><stop offset=".71" stop-color="#a5784d"/><stop offset=".85" stop-color="#c09064"/><stop offset="1" stop-color="#c3976b" stop-opacity="0"/></radialGradient><radialGradient id="t" cx="0" cy="0" r="1" gradientTransform="matrix(-13.887182916447182,10.54705918894635,-11.01900142443575,-14.508583444578003,99.915,78.4946)" xlink:href="#BX"><stop offset=".517" stop-color="#b7834c"/><stop offset=".85" stop-color="#b27f4c" stop-opacity="0"/></radialGradient><radialGradient id="u" cx="0" cy="0" r="1" gradientTransform="translate(115.129 24.2832) rotate(125.261) scale(22.9518 18.2191)" xlink:href="#BX"><stop stop-color="#fffad9"/><stop offset=".639" stop-color="#e6caae"/><stop offset="1" stop-color="#c6ac92"/></radialGradient><radialGradient id="v" cx="0" cy="0" r="1" gradientTransform="translate(91.1622 74.0878) rotate(-90.6428) scale(31.2069 29.7377)" xlink:href="#BX"><stop stop-color="#a47250"/><stop offset=".595" stop-color="#b19168"/><stop offset="1" stop-color="#a87658" stop-opacity="0"/></radialGradient><radialGradient id="w" cx="0" cy="0" r="1" gradientTransform="translate(85.3179 45.7234) rotate(125.667) scale(23.2415 18.5398)" xlink:href="#BX"><stop stop-color="#fffad9"/><stop offset=".639" stop-color="#e0c4a0"/><stop offset="1" stop-color="#c6ac92"/></radialGradient><radialGradient id="x" cx="0" cy="0" r="1" gradientTransform="translate(72.8905 57.649) rotate(127.748) scale(22.091 22.0954)" xlink:href="#BX"><stop stop-color="#fffad9"/><stop offset=".639" stop-color="#d5b693"/><stop offset="1" stop-color="#ba8f62"/></radialGradient><radialGradient id="y" cx="0" cy="0" r="1" gradientTransform="matrix(1.2636814316524527,11.130394101257009,-25.29559146834118,2.8719171082719277,65.9214,68.7092)" xlink:href="#BX"><stop stop-color="#99744a"/><stop offset=".806" stop-color="#b38d63" stop-opacity="0"/></radialGradient><radialGradient id="z" cx="0" cy="0" r="1" gradientTransform="translate(86.0184 59.6843) rotate(130.839) scale(18.5595)" xlink:href="#BX"><stop stop-color="#fff7d4"/><stop offset=".639" stop-color="#eac294"/><stop offset="1" stop-color="#ab9674"/></radialGradient><radialGradient id="AA" cx="0" cy="0" r="1" gradientTransform="translate(128.739 33.6094) rotate(120.912) scale(19.1145 19.1218)" xlink:href="#BX"><stop stop-color="#fff7d4"/><stop offset=".639" stop-color="#f4cba8"/><stop offset="1" stop-color="#c1a382"/></radialGradient><radialGradient id="AB" cx="0" cy="0" r="1" gradientTransform="translate(115.116 36.9098) rotate(124.001) scale(20.034 20.034)" xlink:href="#BX"><stop stop-color="#fff7d4"/><stop offset=".639" stop-color="#f4cba8"/><stop offset="1" stop-color="#c1a382"/></radialGradient><radialGradient id="AC" cx="0" cy="0" r="1" gradientTransform="translate(104.232 46.4464) rotate(89.0546) scale(7.07312 17.5735)" xlink:href="#BX"><stop stop-color="#b38e5e"/><stop offset="1" stop-color="#b59062" stop-opacity="0"/></radialGradient><radialGradient id="AD" cx="0" cy="0" r="1" gradientTransform="translate(112.518 40.6816) rotate(141.895) scale(24.4704 18.9388)" xlink:href="#BX"><stop offset=".601" stop-color="#a79376" stop-opacity="0"/><stop offset="1" stop-color="#ab9777"/></radialGradient><linearGradient id="AE" x1="112.841" y1="53.472" x2="158.038" y2="53.473" xlink:href="#BX"><stop offset=".12" stop-color="#dab381"/><stop offset=".439" stop-color="#deba8c"/><stop offset=".635" stop-color="#e6d2ad"/><stop offset="1" stop-color="#e8d4ae"/></linearGradient><linearGradient id="AF" x1="39.623" y1="81.359" x2="85.28" y2="81.359" xlink:href="#BX"><stop offset=".349" stop-color="#a29175"/><stop offset=".635" stop-color="#f9dfb1"/><stop offset="1" stop-color="#e0cfaf"/></linearGradient><radialGradient id="AG" cx="0" cy="0" r="1" gradientTransform="translate(145.579 58.7275) rotate(-9.08967) scale(17.1642 16.9458)" xlink:href="#BX"><stop offset=".191" stop-color="#fffae5"/><stop offset=".407" stop-color="#ffe6c2"/><stop offset="1" stop-color="#ffe9be"/></radialGradient><radialGradient id="AH" cx="0" cy="0" r="1" gradientTransform="matrix(7.164932533792835,3.8063424463777547,-2.1236518042136305,3.997491585902364,145.236,71.6077)" xlink:href="#BX"><stop stop-color="#cf9d67"/><stop offset="1" stop-color="#c99762" stop-opacity="0"/></radialGradient><radialGradient id="AI" cx="0" cy="0" r="1" gradientTransform="matrix(4.113037507276343e-16,6.7171,-7.0171,4.296734527148446e-16,154.192,56.6061)" xlink:href="#BX"><stop stop-color="#fffbd8"/><stop offset="1" stop-color="#fffad8" stop-opacity="0"/></radialGradient><radialGradient id="AJ" cx="0" cy="0" r="1" gradientTransform="translate(56.7113 84.1153) rotate(127.748) scale(22.091 22.0954)" xlink:href="#BX"><stop stop-color="#fffad9"/><stop offset=".639" stop-color="#d5b693"/><stop offset="1" stop-color="#ba8f62"/></radialGradient><radialGradient id="AK" cx="0" cy="0" r="1" gradientTransform="translate(49.7422 95.1751) rotate(83.5227) scale(11.2019 25.4581)" xlink:href="#BX"><stop stop-color="#99744a"/><stop offset=".806" stop-color="#b38d63" stop-opacity="0"/></radialGradient><radialGradient id="AL" cx="0" cy="0" r="1" gradientTransform="translate(69.5295 72.5807) rotate(125.667) scale(23.2805 18.5708)" xlink:href="#BX"><stop stop-color="#ffeebc"/><stop offset=".639" stop-color="#dfbf96"/><stop offset="1" stop-color="#c6ac92"/></radialGradient><radialGradient id="AM" cx="0" cy="0" r="1" gradientTransform="translate(142.391 44.3613) rotate(125.261) scale(22.0611 16.3641)" xlink:href="#BX"><stop stop-color="#fffad9"/><stop offset=".639" stop-color="#f8ddb7"/><stop offset="1" stop-color="#c6ac92"/></radialGradient><linearGradient id="AN" x1="129.243" y1="81.25" x2="174.901" y2="81.25" xlink:href="#BX"><stop offset=".12" stop-color="#dab381"/><stop offset=".439" stop-color="#deba8c"/><stop offset=".635" stop-color="#e6d2ad"/><stop offset="1" stop-color="#e8d4ae"/></linearGradient><radialGradient id="AO" cx="0" cy="0" r="1" gradientTransform="translate(138.076 59.197) rotate(118.641) scale(13.031 13.0113)" xlink:href="#BX"><stop offset=".585" stop-color="#fffad8"/><stop offset=".729" stop-color="#fde0b2"/></radialGradient><radialGradient id="AP" cx="0" cy="0" r="1" gradientTransform="translate(158.306 71.2676) rotate(128.246) scale(25.261 20.1335)" xlink:href="#BX"><stop offset=".102" stop-color="#fff5ca"/><stop offset=".518" stop-color="#f2d4b4"/><stop offset="1" stop-color="#d9b68f"/></radialGradient><linearGradient id="AQ" x1="93.608" y1="56.986" x2="136.553" y2="56.986" xlink:href="#BX"><stop stop-color="#c0a988"/><stop offset=".315" stop-color="#a19075"/><stop offset=".758" stop-color="#d9c7a5"/><stop offset=".894" stop-color="#ead5b1"/><stop offset="1" stop-color="#fcdba9"/></linearGradient><radialGradient id="AR" cx="0" cy="0" r="1" gradientTransform="matrix(-13.187040938444989,-2.3340127008600144,2.438443735086069,-13.777070428462629,114.268,62.9008)" xlink:href="#BX"><stop offset=".619" stop-color="#c89965"/><stop offset=".852" stop-color="#c69864" stop-opacity="0"/></radialGradient><radialGradient id="AS" cx="0" cy="0" r="1" gradientTransform="matrix(-9.335928091676815,6.885303679362278,-7.19335369613676,-9.753619589274313,127.923,77.4882)" xlink:href="#BX"><stop offset=".517" stop-color="#b7834c"/><stop offset=".85" stop-color="#b27f4c" stop-opacity="0"/></radialGradient><radialGradient id="AT" cx="0" cy="0" r="1" gradientTransform="translate(162.249 86.2365) rotate(-8.58789) scale(17.742 16.5793)" xlink:href="#BX"><stop offset=".191" stop-color="#fffae5"/><stop offset=".407" stop-color="#ffe6c2"/><stop offset="1" stop-color="#ffe9be"/></radialGradient><radialGradient id="AU" cx="0" cy="0" r="1" gradientTransform="matrix(7.879712481090594,4.81278008150644,-2.618870348037043,4.287739106775544,161.43,97.7272)" xlink:href="#BX"><stop stop-color="#cf9d67"/><stop offset="1" stop-color="#c99762" stop-opacity="0"/></radialGradient><radialGradient id="AV" cx="0" cy="0" r="1" gradientTransform="matrix(4.0186111158280867e-16,6.56289,-7.2632,4.447427315783528e-16,171.163,84.164)" xlink:href="#BX"><stop stop-color="#fffbd8"/><stop offset="1" stop-color="#fffad8" stop-opacity="0"/></radialGradient><radialGradient id="AW" cx="0" cy="0" r="1" gradientTransform="translate(125.13 57.06) rotate(-9.08967) scale(17.8921 17.6643)" xlink:href="#BX"><stop offset=".191" stop-color="#fffae5"/><stop offset=".407" stop-color="#ffe6c2"/><stop offset="1" stop-color="#ffe9be"/></radialGradient><radialGradient id="AX" cx="0" cy="0" r="1" gradientTransform="matrix(7.468733663669601,3.967735610996336,-2.213710325419941,4.167014753517096,124.771,70.4863)" xlink:href="#BX"><stop stop-color="#cf9d67"/><stop offset="1" stop-color="#c99762" stop-opacity="0"/></radialGradient><radialGradient id="AY" cx="0" cy="0" r="1" gradientTransform="matrix(4.287457827644905e-16,7.00195,-7.31467,4.478943601159585e-16,134.107,54.8486)" xlink:href="#BX"><stop stop-color="#fffbd8"/><stop offset="1" stop-color="#fffad8" stop-opacity="0"/></radialGradient><radialGradient id="AZ" cx="0" cy="0" r="1" gradientTransform="translate(155.309 87.6711) rotate(118.632) scale(13.7816 13.758)" xlink:href="#BX"><stop offset=".449" stop-color="#fffad8"/><stop offset=".729" stop-color="#fde0b2"/></radialGradient><linearGradient id="Aa" x1="113.594" y1="80.986" x2="159.252" y2="80.986" xlink:href="#BX"><stop offset=".12" stop-color="#dab381"/><stop offset=".439" stop-color="#deba8c"/><stop offset=".635" stop-color="#e6d2ad"/><stop offset="1" stop-color="#ebd7b2"/></linearGradient><radialGradient id="Ab" cx="0" cy="0" r="1" gradientTransform="translate(142.277 71.42) rotate(128.246) scale(25.261 20.1335)" xlink:href="#BX"><stop offset=".102" stop-color="#fff5ca"/><stop offset=".518" stop-color="#f2d4b4"/><stop offset="1" stop-color="#d9b68f"/></radialGradient><radialGradient id="Ac" cx="0" cy="0" r="1" gradientTransform="translate(146.17 86.4589) rotate(-8.58789) scale(18.1196 16.9321)" xlink:href="#BX"><stop offset=".191" stop-color="#fffae5"/><stop offset=".407" stop-color="#ffe6c2"/><stop offset="1" stop-color="#ffe9be"/></radialGradient><radialGradient id="Ad" cx="0" cy="0" r="1" gradientTransform="matrix(8.047406974305792,4.915204721829449,-2.674607074702383,4.378993926925677,145.334,98.1938)" xlink:href="#BX"><stop stop-color="#cf9d67"/><stop offset="1" stop-color="#c99762" stop-opacity="0"/></radialGradient><radialGradient id="Ae" cx="0" cy="0" r="1" gradientTransform="matrix(4.104140448280537e-16,6.70257,-7.41779,4.542086390123623e-16,155.275,84.3415)" xlink:href="#BX"><stop stop-color="#fffbd8"/><stop offset="1" stop-color="#fffad8" stop-opacity="0"/></radialGradient><radialGradient id="Af" cx="0" cy="0" r="1" gradientTransform="translate(122.392 42.1577) rotate(125.261) scale(22.6564 16.8057)" xlink:href="#BX"><stop stop-color="#fffad9"/><stop offset=".639" stop-color="#e6caae"/><stop offset="1" stop-color="#c6ac92"/></radialGradient><radialGradient id="Ag" cx="0" cy="0" r="1" gradientTransform="translate(109.426 54.8746) rotate(127.051) scale(22.2587 22.1162)" xlink:href="#BX"><stop stop-color="#fffad9"/><stop offset=".639" stop-color="#d5b693"/><stop offset="1" stop-color="#ba8f62"/></radialGradient><radialGradient id="Ah" cx="0" cy="0" r="1" gradientTransform="matrix(-9.335879520816313,15.710293554953152,-12.310404090141622,-7.3154870745169385,122.986,89.2749)" xlink:href="#BX"><stop offset=".71" stop-color="#a5784d"/><stop offset=".85" stop-color="#c09064"/><stop offset="1" stop-color="#c3976b" stop-opacity="0"/></radialGradient><radialGradient id="Ai" cx="0" cy="0" r="1" gradientTransform="matrix(-13.887182916447182,10.54705918894635,-11.01900142443575,-14.508583444578003,145.042,104.986)" xlink:href="#BX"><stop offset=".517" stop-color="#b7834c"/><stop offset=".85" stop-color="#b27f4c" stop-opacity="0"/></radialGradient><radialGradient id="Aj" cx="0" cy="0" r="1" gradientTransform="translate(123.138 56.4144) rotate(130.914) scale(18.5316 18.5386)" xlink:href="#BX"><stop stop-color="#fff7d4"/><stop offset=".639" stop-color="#f4cba8"/><stop offset="1" stop-color="#c1a382"/></radialGradient><radialGradient id="Ak" cx="0" cy="0" r="1" gradientTransform="translate(144.381 87.9259) rotate(130.839) scale(18.5595)" xlink:href="#BX"><stop stop-color="#fff7d4"/><stop offset=".639" stop-color="#f4cba8"/><stop offset="1" stop-color="#c1a382"/></radialGradient><linearGradient id="Al" x1="78.981" y1="84.52" x2="122.757" y2="84.52" xlink:href="#BX"><stop stop-color="#c0a988"/><stop offset=".315" stop-color="#a19075"/><stop offset=".758" stop-color="#d9c7a5"/><stop offset=".894" stop-color="#ead5b1"/><stop offset="1" stop-color="#fcdba9"/></linearGradient><radialGradient id="Am" cx="0" cy="0" r="1" gradientTransform="translate(110.55 89.5488) rotate(-9.08967) scale(18.6912 18.4533)" xlink:href="#BX"><stop offset=".191" stop-color="#fffae5"/><stop offset=".407" stop-color="#ffe6c2"/><stop offset="1" stop-color="#ffe9be"/></radialGradient><radialGradient id="An" cx="0" cy="0" r="1" gradientTransform="matrix(-14.704151981861108,15.170858421800991,-8.464269656125285,-8.203880359220063,110.768,71.8868)" xlink:href="#BX"><stop stop-color="#cf9d67"/><stop offset="1" stop-color="#c99762" stop-opacity="0"/></radialGradient><radialGradient id="Ao" cx="0" cy="0" r="1" gradientTransform="matrix(4.478961970861572e-16,7.3147,-7.64135,4.678977409332314e-16,119.929,87.2388)" xlink:href="#BX"><stop stop-color="#fffbd8"/><stop offset="1" stop-color="#fffad8" stop-opacity="0"/></radialGradient><radialGradient id="Ap" cx="0" cy="0" r="1" gradientTransform="matrix(-9.04029448187399,9.919491755175699,-10.054230101570791,-9.163090524199127,125.293,102.112)" xlink:href="#BX"><stop offset=".416" stop-color="#b38d71"/><stop offset=".779" stop-color="#a58065" stop-opacity="0"/></radialGradient><radialGradient id="Aq" cx="0" cy="0" r="1" gradientTransform="translate(106.333 72.7037) rotate(121.298) scale(24.0516 19.1696)" xlink:href="#BX"><stop stop-color="#fff5ca"/><stop offset=".639" stop-color="#dfc1a0"/><stop offset="1" stop-color="#bea281"/></radialGradient><radialGradient id="Ar" cx="0" cy="0" r="1" gradientTransform="translate(95.1348 86.435) rotate(127.746) scale(22.4484 22.4524)" xlink:href="#BX"><stop stop-color="#fffad9"/><stop offset=".639" stop-color="#d5b693"/><stop offset="1" stop-color="#ba8f62"/></radialGradient><radialGradient id="As" cx="0" cy="0" r="1" gradientTransform="translate(69.8387 85.358) rotate(130.839) scale(18.5595)" xlink:href="#BX"><stop stop-color="#ffecba"/><stop offset=".639" stop-color="#eec69c"/><stop offset="1" stop-color="#b09970"/></radialGradient><linearGradient id="At" x1="62.564" y1="94.293" x2="90.229" y2="94.293" xlink:href="#BX"><stop offset=".064" stop-color="#9d9093"/><stop offset=".663" stop-color="#f6e8ff"/></linearGradient><linearGradient id="Au" x1="80.193" y1="224.212" x2="80.193" y2="214.727" xlink:href="#BX"><stop stop-color="#c573fd"/><stop offset=".151" stop-color="#edb2ff"/><stop offset="1" stop-color="#e39cff" stop-opacity="0"/></linearGradient><linearGradient id="Av" x1="32.781" y1="98.967" x2="63.855" y2="98.967" xlink:href="#BX"><stop offset=".335" stop-color="#a42131"/><stop offset="1" stop-color="#fb3a4a"/></linearGradient><linearGradient id="Aw" x1="66.889" y1="222.662" x2="66.889" y2="206.791" xlink:href="#BX"><stop stop-color="#d8107f"/><stop offset=".235" stop-color="#f71080"/><stop offset="1" stop-color="#f20f81" stop-opacity="0"/></linearGradient><linearGradient id="Ax" x1="52.876" y1="91.025" x2="52.876" y2="221.029" xlink:href="#BX"><stop stop-color="#f02059"/><stop offset="1" stop-color="#fa1c79"/></linearGradient><linearGradient id="Ay" x1="38.414" y1="154.51" x2="52.402" y2="152.643" xlink:href="#BX"><stop stop-color="#c83553"/><stop offset=".715" stop-color="#d52853" stop-opacity="0"/></linearGradient><radialGradient id="Az" cx="0" cy="0" r="1" gradientTransform="translate(108.342 87.9259) rotate(130.839) scale(18.5595)" xlink:href="#BX"><stop stop-color="#fff7d4"/><stop offset=".639" stop-color="#f4cba8"/><stop offset="1" stop-color="#c1a382"/></radialGradient><linearGradient id="BA" x1="127.339" y1="94.293" x2="155.274" y2="94.293" xlink:href="#BX"><stop offset=".021" stop-color="#9d9093"/><stop offset=".635" stop-color="#f6e8ff"/></linearGradient><linearGradient id="BB" x1="140.215" y1="224.212" x2="140.215" y2="216.477" xlink:href="#BX"><stop stop-color="#c573fd"/><stop offset=".185" stop-color="#e9a9ff"/><stop offset="1" stop-color="#e39cff" stop-opacity="0"/></linearGradient><linearGradient id="BC" x1="145.516" y1="98.967" x2="176.604" y2="98.967" xlink:href="#BX"><stop offset=".335" stop-color="#a42131"/><stop offset="1" stop-color="#fb3a4a"/></linearGradient><linearGradient id="BD" x1="179.64" y1="222.662" x2="179.64" y2="206.791" xlink:href="#BX"><stop stop-color="#d8107f"/><stop offset=".235" stop-color="#f71080"/><stop offset="1" stop-color="#f20f81" stop-opacity="0"/></linearGradient><linearGradient id="BE" x1="185.374" y1="141.767" x2="161.941" y2="137.891" xlink:href="#BX"><stop stop-color="#fe1951"/><stop offset=".563" stop-color="#f32064"/></linearGradient><linearGradient id="BF" x1="90.752" y1="98.961" x2="127.08" y2="98.961" xlink:href="#BX"><stop offset=".397" stop-color="#c13444"/><stop offset="1" stop-color="#ff4358"/></linearGradient><linearGradient id="BG" x1="108.752" y1="91.492" x2="108.752" y2="222.779" xlink:href="#BX"><stop stop-color="#f02059"/><stop offset="1" stop-color="#fa1c79"/></linearGradient><path id="BH" d="M95.044 52.726c6.532 0 11.828-5.392 11.828-12.044s-5.296-12.045-11.828-12.045-11.828 5.393-11.828 12.045 5.296 12.045 11.828 12.045z"/><path id="BI" d="M78.569 89.416c6.302.43 11.744-4.11 12.156-10.142s-4.363-11.27-10.664-11.701-11.744 4.11-12.156 10.142 4.362 11.27 10.664 11.701z"/><path id="BJ" d="M65.921 72.933c6.588 0 11.928-5.302 11.928-11.843s-5.34-11.843-11.928-11.843-11.928 5.302-11.928 11.843 5.34 11.843 11.928 11.843z"/><path id="BK" d="M87.337 87.609c0-6.349-4.407-11.052-10.382-12.396-1.046-.224-1.867-.896-2.241-1.942-1.793-5.153-4.5-10.428-12.473-10.428s-10.68 5.275-12.473 10.428c-.373.971-1.195 1.718-2.241 1.942-5.9 1.27-10.382 6.047-10.382 12.396s4.407 11.576 10.382 12.92c1.046.224 1.867.897 2.241 1.942 1.792 5.154 6.722 8.813 12.473 8.813s10.68-3.659 12.473-8.813c.373-.971 1.195-1.718 2.241-1.942 5.975-1.344 10.382-6.647 10.382-12.92z"/><path id="BL" d="M147.175 71.608c6.596 0 11.943-5.275 11.943-11.783s-5.347-11.783-11.943-11.783-11.943 5.275-11.943 11.783 5.347 11.783 11.943 11.783z"/><path id="BM" d="M114.852 87.239c6.317 0 11.437-4.901 11.437-10.947s-5.12-10.947-11.437-10.947-11.436 4.901-11.436 10.947 5.12 10.947 11.436 10.947z"/><path id="BN" d="M163.899 98.821c6.828 0 12.362-5.154 12.362-11.512s-5.534-11.512-12.362-11.512-12.361 5.154-12.361 11.512 5.534 11.512 12.361 11.512z"/><path id="BO" d="M126.792 70.486c6.876 0 12.45-5.499 12.45-12.283s-5.574-12.283-12.45-12.283-12.449 5.499-12.449 12.283 5.574 12.283 12.449 12.283z"/><path id="BP" d="M147.857 99.311c6.972 0 12.625-5.264 12.625-11.758s-5.653-11.757-12.625-11.757-12.625 5.264-12.625 11.757 5.652 11.758 12.625 11.758z"/><path id="BQ" d="M123.697 115.907c6.301.43 11.744-4.111 12.156-10.142s-4.363-11.271-10.664-11.701-11.744 4.11-12.156 10.142 4.362 11.27 10.664 11.701z"/><path id="BR" d="M112.287 103.574c7.183 0 13.006-5.744 13.006-12.831s-5.823-12.831-13.006-12.831-13.005 5.745-13.005 12.831 5.823 12.831 13.005 12.831z"/><path id="BS" d="M62.613 103.536l9.635 120.676h23.004l-4.929-122.308c-.299-7.411-6.423-13.268-13.892-13.268-8.066 0-14.489 6.82-13.817 14.9z"/><path id="BT" d="M47.899 88.636c-9.261 0-16.357 8.228-14.937 17.346l17.402 109.335c.822 5.114 5.303 8.895 10.531 8.895h11.726l-9.709-121.788c-.523-7.784-7.095-13.788-15.012-13.788z"/><path id="BU" d="M47.899 91.025c-9.261 0-15.281 8.083-13.862 17.04l18.38 107.408c.822 5.025 2.885 5.556 8.113 5.556h10.443L61.52 104.57c-.523-7.646-5.704-13.545-13.621-13.545z"/><path id="BV" d="M127.442 101.904l-4.855 122.308h23.004l9.634-120.676c.673-8.006-5.751-14.9-13.892-14.9-7.468 0-13.593 5.856-13.891 13.268z"/><path id="BW" d="M170.312 88.636c-7.917 0-14.415 6.004-15.087 13.788l-9.709 121.788h11.726c5.228 0 9.709-3.781 10.531-8.895l17.402-109.335c1.494-9.117-5.602-17.346-14.863-17.346z"/><linearGradient id="BX" gradientUnits="userSpaceOnUse"/></defs></svg>