<svg xmlns="http://www.w3.org/2000/svg" xmlns:xlink="http://www.w3.org/1999/xlink" width="199" height="225" fill="none" xmlns:v="https://vecta.io/nano"><style><![CDATA[.B{color-interpolation-filters:sRGB}.C{flood-opacity:0}.D{stroke-linecap:round}]]></style><g stroke-width="1.75" class="D"><path d="M171.444 27.4109L128.132 82.5502" stroke="url(#G)"/><path d="M192.035 56.0149L135.443 87.4246" stroke="url(#H)"/></g><circle cx="50.153" cy="124.805" r="47.461" fill="#8c604d"/><circle cx="50.153" cy="124.805" r="47.461" fill="url(#I)"/><circle cx="50.153" cy="124.805" r="47.461" fill="url(#J)"/><circle cx="144.517" cy="123.926" fill="url(#K)" r="47.461"/><circle cx="144.517" cy="123.926" fill="url(#L)" r="47.461"/><g filter="url(#A)" class="D"><path d="M141.589 65.4785L170.153 28.7842" stroke="url(#M)" stroke-width=".75"/></g><g filter="url(#B)" class="D"><path d="M142.028 66.3574L172.351 27.4658" stroke="url(#N)" stroke-width=".5"/></g><g filter="url(#C)" class="D"><path d="M150.817 78.2224L192.785 54.9314" stroke="url(#O)" stroke-width=".5"/></g><g filter="url(#D)" class="D"><path d="M148.84 78.8822L193.225 55.3711" stroke="url(#P)" stroke-width=".75"/></g><circle cx="100.5" cy="104.919" r="56.799" fill="url(#Q)"/><circle cx="100.5" cy="104.919" r="56.799" fill="url(#R)"/><circle cx="100.5" cy="104.919" r="56.799" fill="url(#S)"/><use xlink:href="#a" fill="url(#T)"/><use xlink:href="#a" fill="url(#U)"/><use xlink:href="#a" fill="url(#V)"/><use xlink:href="#a" fill="url(#W)"/><use xlink:href="#a" fill="url(#X)"/><use xlink:href="#b" fill="url(#Y)"/><use xlink:href="#b" fill="url(#Z)"/><g filter="url(#E)"><ellipse cx="174.482" cy="25.798" rx="2.307" ry="1.978" transform="rotate(38.79 174.482 25.798)" fill="#dbaa7f"/></g><g filter="url(#F)"><ellipse cx="2.307" cy="2.03" rx="2.307" ry="2.03" transform="matrix(.556917 .830568 -.830567 .556919 194.795 51.885)" fill="#dbaa7f"/></g><defs><filter id="A" x="140.214" y="27.409" width="31.315" height="39.444" filterUnits="userSpaceOnUse" class="B"><feFlood class="C"/><feBlend in="SourceGraphic"/><feGaussianBlur stdDeviation=".5"/></filter><filter id="B" x="141.528" y="26.966" width="31.322" height="39.892" filterUnits="userSpaceOnUse" class="B"><feFlood class="C"/><feBlend in="SourceGraphic"/><feGaussianBlur stdDeviation=".125"/></filter><filter id="C" x="150.317" y="54.431" width="42.968" height="24.291" filterUnits="userSpaceOnUse" class="B"><feFlood class="C"/><feBlend in="SourceGraphic"/><feGaussianBlur stdDeviation=".125"/></filter><filter id="D" x="147.465" y="53.996" width="47.135" height="26.261" filterUnits="userSpaceOnUse" class="B"><feFlood class="C"/><feBlend in="SourceGraphic"/><feGaussianBlur stdDeviation=".5"/></filter><filter id="E" x="172.048" y="23.435" width="4.868" height="4.726" filterUnits="userSpaceOnUse" class="B"><feFlood class="C"/><feBlend in="SourceGraphic"/><feGaussianBlur stdDeviation=".125"/></filter><filter id="F" x="192.025" y="52.457" width="4.739" height="4.95" filterUnits="userSpaceOnUse" class="B"><feFlood class="C"/><feBlend in="SourceGraphic"/><feGaussianBlur stdDeviation=".125"/></filter><linearGradient id="G" x1="141.369" y1="66.797" x2="173.449" y2="27.411" xlink:href="#c"><stop stop-color="#f0af78"/><stop offset="1" stop-color="#bc8755"/></linearGradient><linearGradient id="H" x1="152.739" y1="78.451" x2="164.507" y2="45.31" xlink:href="#c"><stop stop-color="#d9a26a"/><stop offset=".446" stop-color="#dc9b60"/><stop offset="1" stop-color="#bc8755"/></linearGradient><radialGradient id="I" cx="0" cy="0" r="1" gradientTransform="translate(20.5195 109.424) rotate(109.44) scale(31.6894 20.0557)" xlink:href="#c"><stop stop-color="#ab8171"/><stop offset="1" stop-color="#aa8172" stop-opacity="0"/></radialGradient><radialGradient id="J" cx="0" cy="0" r="1" gradientTransform="translate(55.2363 146.777) rotate(90) scale(30.3223 49.5745)" xlink:href="#c"><stop stop-color="#4d4637"/><stop offset="1" stop-color="#5b5143" stop-opacity="0"/></radialGradient><radialGradient id="K" cx="0" cy="0" r="1" gradientTransform="translate(171.252 111.182) rotate(73.8557) scale(34.7696 50.9848)" xlink:href="#c"><stop stop-color="#ffb1b3"/><stop offset=".355" stop-color="#ffa7ab"/><stop offset="1" stop-color="#ff8f9d"/></radialGradient><radialGradient id="L" cx="0" cy="0" r="1" gradientTransform="translate(137.414 148.096) rotate(90) scale(23.291 56.1678)" xlink:href="#c"><stop offset=".159" stop-color="#bd7575"/><stop offset="1" stop-color="#f28f8f" stop-opacity="0"/></radialGradient><linearGradient id="M" x1="171.911" y1="27.686" x2="157.437" y2="73.735" xlink:href="#c"><stop stop-color="#d5966a" stop-opacity="0"/><stop offset=".504" stop-color="#f3af74"/></linearGradient><linearGradient id="N" x1="170.373" y1="27.246" x2="143.127" y2="63.501" xlink:href="#c"><stop stop-color="#cd209d"/><stop offset="1" stop-color="#f3b075"/></linearGradient><linearGradient id="O" x1="179.821" y1="41.425" x2="152.575" y2="77.68" xlink:href="#c"><stop stop-color="#d09468"/><stop offset="1" stop-color="#f3b075"/></linearGradient><linearGradient id="P" x1="194.089" y1="55.733" x2="162.011" y2="91.804" xlink:href="#c"><stop stop-color="#d5966a" stop-opacity="0"/><stop offset=".504" stop-color="#f3af74"/></linearGradient><radialGradient id="Q" cx="0" cy="0" r="1" gradientTransform="translate(133.898 88.7695) rotate(156.413) scale(68.0911 76.1016)" xlink:href="#c"><stop stop-color="#fff0de"/><stop offset=".306" stop-color="#ffe6c8"/><stop offset=".668" stop-color="#e9cfb2"/><stop offset="1" stop-color="#ddc3a6"/></radialGradient><linearGradient id="R" x1="100.5" y1="48.12" x2="100.5" y2="161.719" xlink:href="#c"><stop offset=".756" stop-color="#e3c9ac" stop-opacity="0"/><stop offset=".872" stop-color="#cab193"/></linearGradient><radialGradient id="S" cx="0" cy="0" r="1" gradientTransform="translate(93.2489 48.1201) rotate(88.3634) scale(7.69357 15.4367)" xlink:href="#c"><stop offset=".55" stop-color="#b49b7e"/><stop offset="1" stop-color="#bba185" stop-opacity="0"/></radialGradient><linearGradient id="T" x1="96.766" y1="147.948" x2="96.766" y2="210.606" xlink:href="#c"><stop offset=".058" stop-color="#7fd4ff"/><stop offset=".115" stop-color="#69c0f9"/><stop offset=".5" stop-color="#6189ff"/><stop offset=".704" stop-color="#597cff"/><stop offset=".865" stop-color="#427aff"/><stop offset="1" stop-color="#716dff"/></linearGradient><radialGradient id="U" cx="0" cy="0" r="1" gradientTransform="matrix(3.836695957048743e-15,62.658,-116.894,7.157693146976536e-15,174.328,147.948)" xlink:href="#c"><stop stop-color="#85efff"/><stop offset=".613" stop-color="#73c5ff" stop-opacity=".391"/><stop offset="1" stop-color="#67aaff" stop-opacity="0"/></radialGradient><radialGradient id="V" cx="0" cy="0" r="1" gradientTransform="matrix(1.4127096848584164e-16,2.30713,-56.4679,3.4576616494786414e-15,153.234,149.853)" xlink:href="#c"><stop stop-color="#91f7ff"/><stop offset="1" stop-color="#91f7ff" stop-opacity="0"/></radialGradient><radialGradient id="W" cx="0" cy="0" r="1" gradientTransform="matrix(14.50193677322813,21.641238888642526,-70.068255403153,46.953199624823455,175.207,188.965)" xlink:href="#c"><stop stop-color="#8e9aff"/><stop offset="1" stop-color="#939cff" stop-opacity="0"/></radialGradient><radialGradient id="X" cx="0" cy="0" r="1" gradientTransform="matrix(6.727168564736283e-16,10.9863,-53.1738,3.2559561984250763e-15,122.033,201.269)" xlink:href="#c"><stop stop-color="#4c9bff"/><stop offset="1" stop-color="#4b98ff" stop-opacity="0"/></radialGradient><radialGradient id="Y" cx="0" cy="0" r="1" gradientTransform="translate(105.773 37.3535) rotate(135.881) scale(20.2005 20.8358)" xlink:href="#c"><stop stop-color="#ff6fb3"/><stop offset=".481" stop-color="#fe3e8b"/><stop offset="1" stop-color="#e64260"/></radialGradient><radialGradient id="Z" cx="0" cy="0" r="1" gradientTransform="matrix(6.152344128409219,4.39453512162875,-5.8340071637866755,8.1676033359172,92.1504,38.6719)" xlink:href="#c"><stop stop-color="#ef6175"/><stop offset="1" stop-color="#ed6374" stop-opacity="0"/></radialGradient><path id="a" d="M7.142 147.948h75.037 29.175 75.037c4.374 0 6.819 4.992 4.079 8.401-10.429 15.257-20.756 26.024-39.653 36.024-4.004 2.461-8.236 5.807-10.657 9.835l-.949 1.579c-2.543 4.231-7.118 6.819-12.054 6.819h-15.803-29.175-15.804c-4.936 0-9.511-2.588-12.053-6.819l-.949-1.579c-2.421-4.028-5.812-7.374-9.816-9.835-18.863-10.22-28.75-19.229-40.494-36.024-2.741-3.409-.296-8.401 4.079-8.401z"/><path id="b" d="M114.206 42.07c0 7.702-5.096 13.095-13.945 13.095S86.316 49.772 86.316 42.07s6.243-13.945 13.945-13.945 13.945 6.243 13.945 13.945z"/><linearGradient id="c" gradientUnits="userSpaceOnUse"/></defs></svg>