<?xml version="1.0" encoding="utf-8"?>
<svg viewBox="0 0 194 45" aria-label="CipherStash logo" class="css-19btrmw" xmlns="http://www.w3.org/2000/svg">
  <defs>
    <path d="M15.07 22.5l4.43 2.55L39 13.81v-2.56L28.14 4.99l-17.28 9.97-4.32-2.5L23.82 2.5 19.5 0 0 11.25v2.56L10.75 20l17.4-10.04 4.31 2.5L15.07 22.5zm4.43 7.54L0 18.8v14.96L19.5 45 39 33.75v-4.99L19.5 40.01 4.32 31.26v-4.99l15.18 8.76L39 23.78v-4.99L19.5 30.04z"/>
  </defs>
  <g>
    <mask>
      <path d="M15.07 22.5l4.43 2.55L39 13.81v-2.56L28.14 4.99l-17.28 9.97-4.32-2.5L23.82 2.5 19.5 0 0 11.25v2.56L10.75 20l17.4-10.04 4.31 2.5L15.07 22.5zm4.43 7.54L0 18.8v14.96L19.5 45 39 33.75v-4.99L19.5 40.01 4.32 31.26v-4.99l15.18 8.76L39 23.78v-4.99L19.5 30.04z" transform="matrix(1, 0, 0, 1, 0, 0)"/>
    </mask>
    <path d="M15.07 22.5l4.43 2.55L39 13.81v-2.56L28.14 4.99l-17.28 9.97-4.32-2.5L23.82 2.5 19.5 0 0 11.25v2.56L10.75 20l17.4-10.04 4.31 2.5L15.07 22.5zm4.43 7.54L0 18.8v14.96L19.5 45 39 33.75v-4.99L19.5 40.01 4.32 31.26v-4.99l15.18 8.76L39 23.78v-4.99L19.5 30.04z" mask="url(#logo-mask)"/>
    <path d="M61.48 18.12H50.13v8.16h11.35v3.12h-11.5a2.9 2.9 0 01-2.11-.86 2.84 2.84 0 01-.87-2.1v-8.48c0-.83.29-1.53.87-2.1a2.9 2.9 0 012.12-.86h11.5v3.12zm3.08 11.28h3.09V17.8h-3.09v11.6zm0-12.32h3.09V14h-3.09v3.08zm15.06.72c.81 0 1.5.29 2.07.86.57.57.86 1.25.86 2.04v5.8c0 .79-.29 1.47-.86 2.04-.57.57-1.26.86-2.07.86h-5.85V34H70.7V17.8h8.93zm-5.85 8.54h5.7v-5.48h-5.7v5.48zm20.3-8.54c.8 0 1.49.29 2.07.86.57.57.86 1.25.86 2.04v8.7h-3.08v-8.54h-5.7v8.54h-3.08V14h3.09v3.8h5.85zm14.46 0c.81 0 1.5.29 2.07.86.57.57.86 1.25.86 2.04v4.44h-8.78v1.2h8.78v3.06h-8.94c-.8 0-1.48-.29-2.06-.86a2.77 2.77 0 01-.86-2.04v-5.8c0-.79.29-1.47.86-2.04a2.82 2.82 0 012.06-.86h6.01zm-5.85 4.66h5.7v-1.6h-5.7v1.6zm14.76-4.66h6.46v3.06h-6.32v8.54h-3.08v-8.7c0-.79.29-1.47.86-2.04a2.85 2.85 0 012.08-.86zm23.23-.4v.56h-1.63v-.56c0-.21-.08-.4-.23-.55a.76.76 0 00-.56-.23h-9.68c-.22 0-.4.08-.56.23a.75.75 0 00-.23.55v3.22c0 .21.08.4.23.54.16.15.34.22.56.22h9.68c.67 0 1.24.23 1.71.7.48.47.71 1.03.71 1.7V27a2.3 2.3 0 01-.7 1.7c-.48.47-1.05.7-1.72.7h-9.68c-.67 0-1.25-.23-1.72-.7a2.3 2.3 0 01-.7-1.7v-.56h1.63V27c0 .21.08.4.23.55.16.15.34.23.56.23h9.68c.22 0 .4-.08.56-.23a.75.75 0 00.23-.55v-3.22c0-.21-.08-.4-.23-.54a.78.78 0 00-.56-.22h-9.68c-.67 0-1.25-.23-1.72-.7a2.3 2.3 0 01-.7-1.7V17.4c0-.67.23-1.23.7-1.7s1.05-.7 1.72-.7h9.68c.67 0 1.24.23 1.71.7.48.47.71 1.03.71 1.7zm9.71 2.04h-5.06v7.54c0 .21.08.4.23.55.16.15.34.23.56.23h4.27v1.64h-4.27c-.69 0-1.27-.24-1.74-.7a2.34 2.34 0 01-.7-1.72V14h1.65v3.8h5.06v1.64zm11.9-1.64c.68 0 1.26.24 1.74.71s.71 1.04.71 1.71v9.18h-9.48c-.67 0-1.24-.24-1.72-.7a2.32 2.32 0 01-.72-1.72v-4.2h10.25v-2.56c0-.21-.08-.4-.23-.55a.76.76 0 00-.56-.23h-9.46V17.8h9.46zm.78 9.96v-3.34h-8.6v2.56c0 .21.08.4.24.55.15.15.34.23.55.23h7.81zm16.09-7.54v.16h-1.68v-.16c0-.21-.08-.4-.23-.55a.76.76 0 00-.56-.23h-7.02c-.21 0-.4.08-.55.23a.75.75 0 00-.23.55V22c0 .21.07.4.23.55.15.15.34.23.55.23h7.02c.69 0 1.27.24 1.75.71s.72 1.04.72 1.71v1.78c0 .67-.24 1.24-.72 1.71s-1.06.71-1.75.71h-7.02c-.67 0-1.24-.24-1.72-.7a2.32 2.32 0 01-.72-1.72v-.16h1.66v.16c0 .21.07.4.23.55.15.15.34.23.55.23h7.02c.22 0 .4-.08.56-.23a.75.75 0 00.23-.55V25.2c0-.21-.08-.4-.23-.55a.76.76 0 00-.56-.23h-7.02c-.67 0-1.24-.24-1.72-.71a2.32 2.32 0 01-.72-1.71v-1.78c0-.67.24-1.24.72-1.7a2.36 2.36 0 011.72-.72h7.02c.69 0 1.27.24 1.75.71s.72 1.04.72 1.71zm12.4-2.42c.68 0 1.26.24 1.73.71.48.47.72 1.04.72 1.71v9.18h-1.65v-9.18c0-.21-.08-.4-.24-.55a.76.76 0 00-.55-.23h-7.02a.8.8 0 00-.57.23.73.73 0 00-.24.55v9.18h-1.65V14h1.65v3.8h7.83z"/>
  </g>
</svg>