<svg width="250" height="125" viewBox="0 0 250 125" fill="none" xmlns="http://www.w3.org/2000/svg">
<path d="M85.2042 53.3583C86.2267 52.2428 87.4757 51.3587 88.8676 50.7651C90.2596 50.1716 91.7622 49.8823 93.2751 49.9167C96.7042 49.9167 99.3667 51.3125 100.042 53.3V50.3333H106.763V69.2792C106.763 72.1958 106.538 74.5583 106.042 76.225C105.546 77.8917 104.508 79.3833 102.796 80.6C100.583 82.1792 97.7959 82.9917 94.3584 82.9917C90.1209 82.9917 86.6917 82.1792 84.0292 80.6V74.5583C86.2417 76.4083 89.2626 77.3542 93.0501 77.3542C95.3084 77.3542 97.0209 76.9917 98.2376 76.2708C99.5459 75.3708 100.225 73.7458 100.225 71.4V70.4542C99.275 72.075 96.5709 73.2042 93.2751 73.2042C91.7752 73.2443 90.2833 72.9725 88.894 72.4058C87.5047 71.8392 86.2482 70.9902 85.2042 69.9125C84.1538 68.8234 83.3298 67.5368 82.7798 66.1271C82.2298 64.7174 81.9648 63.2127 82 61.7C81.9283 58.6061 83.0797 55.6086 85.2042 53.3583ZM90.3917 65.6708C90.9326 66.2021 91.5744 66.6196 92.2793 66.8987C92.9842 67.1778 93.7379 67.3129 94.4959 67.2958C95.268 67.3163 96.0365 67.1831 96.7568 66.9042C97.4771 66.6252 98.1348 66.206 98.6917 65.6708C99.2545 65.1755 99.7032 64.564 100.007 63.8784C100.31 63.1929 100.462 62.4497 100.45 61.7C100.462 60.9442 100.311 60.1947 100.008 59.5024C99.7041 58.8101 99.2554 58.1911 98.6917 57.6875C98.1433 57.1378 97.488 56.7063 96.7664 56.4197C96.0448 56.133 95.272 55.9973 94.4959 56.0208C93.7339 56.001 92.976 56.1388 92.2697 56.4256C91.5635 56.7124 90.9241 57.142 90.3917 57.6875C89.8481 58.2021 89.4188 58.8252 89.1316 59.5165C88.8445 60.2078 88.706 60.9517 88.7251 61.7C88.7063 62.4421 88.8452 63.1797 89.1325 63.8642C89.4198 64.5486 89.849 65.1644 90.3917 65.6708Z" fill="#002756"/>
<path d="M111.142 73.0667V50.3333H117.863V53.4458C118.9 51.1458 121.338 49.8375 124.446 49.8375C125.036 49.8477 125.624 49.8937 126.208 49.975V56.2875C125.465 56.14 124.708 56.0646 123.95 56.0625C120.117 56.0625 117.863 58.2292 117.863 61.9708V73.0667H111.142Z" fill="#002756"/>
<path d="M129.367 50.3333H136.179V63.325C136.179 66.2125 137.846 67.5208 140.325 67.5208C142.804 67.5208 144.492 66.2125 144.492 63.325V50.3333H151.304V63.9125C151.304 67.0708 150.267 69.5042 148.146 71.175C146.025 72.8458 143.454 73.7 140.342 73.7C137.229 73.7 134.583 72.8333 132.5 71.1667C130.417 69.5 129.388 67.0625 129.388 63.9042L129.367 50.3333Z" fill="#002756"/>
<path d="M155.575 73.0667V50.3333H162.296V53.175C163.242 51.1917 165.813 49.8417 168.925 49.8417C174.475 49.8417 177.633 53.3625 177.633 59.2708V73.0708H170.913V60.0792C170.913 57.4167 169.421 55.7917 166.746 55.7917C166.15 55.7716 165.556 55.8749 165.002 56.0952C164.448 56.3154 163.946 56.6479 163.526 57.0716C163.107 57.4954 162.779 58.0013 162.565 58.5576C162.35 59.1139 162.253 59.7085 162.279 60.3042V73.0667H155.575Z" fill="#002756"/>
<path d="M183.408 73.0667V56.425H180.388V50.3333H183.408V41.6292H189.95V50.3333H194.95V56.425H189.95V73.0667H183.408Z" fill="#002756"/>
<path d="M201.225 40.7708C201.977 40.775 202.711 41.0015 203.335 41.422C203.959 41.8425 204.444 42.4382 204.73 43.134C205.016 43.8297 205.09 44.5946 204.942 45.3322C204.795 46.0698 204.432 46.7472 203.9 47.2791C203.368 47.8111 202.691 48.1737 201.953 48.3215C201.215 48.4693 200.451 48.3955 199.755 48.1096C199.059 47.8236 198.463 47.3382 198.043 46.7144C197.622 46.0906 197.396 45.3564 197.392 44.6042C197.388 44.0997 197.484 43.5995 197.676 43.1326C197.867 42.6658 198.149 42.2417 198.506 41.8849C198.862 41.5282 199.287 41.246 199.753 41.0547C200.22 40.8635 200.721 40.767 201.225 40.7708ZM197.892 73.0667V50.3333H204.612V73.0667H197.892Z" fill="#002756"/>
<path d="M211.692 73.0667V56.425H207.942V50.3333H211.692V49.7042C211.692 46.4083 212.596 44.0625 214.354 42.6667C215.662 41.5375 217.779 41 220.604 41C221.51 41.0087 222.414 41.0839 223.308 41.225V46.8167C222.647 46.6408 221.963 46.5649 221.279 46.5917C219.112 46.5917 218.167 47.3583 218.167 49.2958V50.3333H222.721V56.425H218.187V73.0667H211.692Z" fill="#002756"/>
<path d="M232.937 73.475L223.421 50.3333H230.417L236.458 65.4917L242.592 50.3333H249.583L236.187 81.8208H229.283L232.937 73.475Z" fill="#002756"/>
<path d="M35.1667 96.75C54.3586 96.75 69.9167 81.1919 69.9167 62C69.9167 42.8081 54.3586 27.25 35.1667 27.25C15.9748 27.25 0.416687 42.8081 0.416687 62C0.416687 81.1919 15.9748 96.75 35.1667 96.75Z" fill="url(#paint0_linear)"/>
<path d="M53.0542 49.95H35.1667C32.7834 49.95 30.4537 50.6567 28.4721 51.9808C26.4904 53.3049 24.946 55.1868 24.0339 57.3887C23.1219 59.5905 22.8833 62.0134 23.3482 64.3508C23.8132 66.6883 24.9608 68.8354 26.646 70.5206C28.3313 72.2059 30.4784 73.3535 32.8158 73.8185C35.1533 74.2834 37.5762 74.0448 39.778 73.1327C41.9799 72.2207 43.8618 70.6762 45.1859 68.6946C46.51 66.713 47.2167 64.3833 47.2167 62V58.6667H41.0042V62C41.0042 63.1537 40.6621 64.2815 40.0211 65.2408C39.3801 66.2001 38.4691 66.9478 37.4032 67.3893C36.3373 67.8308 35.1644 67.9463 34.0328 67.7212C32.9013 67.4962 31.8619 66.9406 31.0461 66.1248C30.2303 65.309 29.6747 64.2696 29.4496 63.138C29.2245 62.0065 29.34 60.8336 29.7815 59.7677C30.2231 58.7018 30.9707 57.7907 31.93 57.1498C32.8893 56.5088 34.0171 56.1667 35.1708 56.1667H49.9542V62C49.955 64.9249 49.0884 67.7843 47.4641 70.2166C45.8397 72.649 43.5305 74.545 40.8285 75.6648C38.1265 76.7847 35.1531 77.0781 32.2843 76.508C29.4156 75.9379 26.7803 74.5299 24.7118 72.462C22.6433 70.3941 21.2345 67.7592 20.6636 64.8906C20.0927 62.022 20.3853 59.0485 21.5044 56.3462C22.6235 53.6439 24.5189 51.3342 26.9508 49.7091C29.3826 48.084 32.2418 47.2167 35.1667 47.2167H44.1083C44.5258 47.232 44.9421 47.1629 45.3323 47.0137C45.7226 46.8645 46.0787 46.6382 46.3795 46.3482C46.6802 46.0583 46.9194 45.7107 47.0828 45.3262C47.2462 44.9417 47.3305 44.5282 47.3305 44.1104C47.3305 43.6926 47.2462 43.2792 47.0828 42.8947C46.9194 42.5102 46.6802 42.1626 46.3795 41.8726C46.0787 41.5827 45.7226 41.3563 45.3323 41.2071C44.9421 41.0579 44.5258 40.9889 44.1083 41.0042H35.1667C31.0141 41.0042 26.9548 42.2355 23.502 44.5426C20.0493 46.8497 17.3582 50.1288 15.7691 53.9652C14.1799 57.8017 13.7641 62.0233 14.5743 66.0961C15.3844 70.1689 17.3841 73.91 20.3204 76.8463C23.2567 79.7826 26.9978 81.7823 31.0706 82.5924C35.1434 83.4025 39.365 82.9867 43.2014 81.3976C47.0379 79.8085 50.317 77.1174 52.6241 73.6647C54.9311 70.2119 56.1625 66.1526 56.1625 62V53.0542C56.1625 52.6462 56.0821 52.2422 55.9258 51.8653C55.7696 51.4884 55.5405 51.146 55.2519 50.8577C54.9632 50.5694 54.6205 50.3408 54.2434 50.1851C53.8663 50.0293 53.4622 49.9495 53.0542 49.95Z" fill="white"/>
<path opacity="0.5" d="M47.2167 56.1625H41.0042V58.6458H47.2167V56.1625Z" fill="white"/>
<defs>
<linearGradient id="paint0_linear" x1="6.56669" y1="81.7417" x2="63.5792" y2="42.3875" gradientUnits="userSpaceOnUse">
<stop stop-color="#4D42FF"/>
<stop offset="1" stop-color="#00D3FF"/>
</linearGradient>
</defs>
</svg>
