<svg enable-background="new 0 0 400 282.8" viewBox="0 0 400 282.8" xmlns="http://www.w3.org/2000/svg" width="64" height="45"><g><path d="m68 252.3h5.6v30h-5.6z"/><path d="m102.6 274-12.6-21.7h-6.7v30h5.1v-23l13.5 23h5.8v-30h-5.1z"/><path d="m138.5 273.5c0-6-3.7-8-10.7-9-5.2-.8-6.2-2-6.2-4.4s1.8-4 5.2-4 5.2 1.3 5.8 4.5h5.1c-.6-5.8-4.5-8.7-10.9-8.7-6.3 0-10.5 3.7-10.5 8.6 0 5.6 3.4 7.8 10.6 8.8 4.9.8 6.3 1.8 6.3 4.6s-2.3 4.6-5.7 4.6c-5.1 0-6.3-2.5-6.7-5.5h-5.4c.4 5.7 3.9 9.8 12 9.8 6.7 0 11.1-4.1 11.1-9.3z"/><path d="m170.4 270.6v-18.3h-5.6v17.8c0 6.2-2.2 8.2-6.5 8.2s-6.2-2.3-6.2-7.8v-18.2h-5.6v18.6c0 7.7 4.3 11.8 11.8 11.8 7.9.1 12.1-4.3 12.1-12.1z"/><path d="m194.4 269.4c3.7-1 6.7-3.4 6.7-8.1v-.2c0-6.1-4.6-8.8-11.2-8.8h-10.1v30h5.6v-12.1h3.6l7.8 12.1h6zm-9-3.2v-9.5h4.5c3.6 0 5.7 1.2 5.7 4.6v.2c0 3.2-2 4.8-5.7 4.8z"/><path d="m218.8 252.3-10 30h5.2l2.3-7.4h11.5l2.4 7.4h5.8l-9.9-30zm-1.1 18.5 4.5-14 4.4 14z"/><path d="m262.7 274-12.7-21.7h-6.6v30h5v-23l13.6 23h5.8v-30h-5.1z"/><path d="m290.8 278.2c-5.5 0-8.8-4-8.8-10.8v-.3c0-6.7 3.5-10.8 8.7-10.8 4.3 0 6.5 2.1 7.2 6h5.7c-.7-7.1-6-10.5-12.9-10.5-8.4 0-14.6 6.3-14.6 15.3v.3c0 9.2 5.2 15.2 14.7 15.2 7.1 0 12.3-3.7 13.2-10.9h-5.4c-.7 4.4-3.7 6.5-7.8 6.5z"/><path d="m318.1 277.9v-8.7h10.5v-4.2h-10.5v-8.3h13.1v-4.4h-18.7v30h19.5v-4.4z"/><path d="m257.6 19.3c7.2 0 13.7-2.2 13.7-5.1 0-.9-1.3-.5-1.9-.3-2.3.6-7.9 2.2-13.8.9-.6 1.2-1.8 2.6-5.3 3.4 2.3.7 4.8 1.1 7.3 1.1z"/><path d="m288.5 65.5c-2.1-2-4.2-3.9-6.4-5.7h-34.8c2.2 1.8 4.4 3.7 6.4 5.7z"/><path d="m153.5 27.4c-2.2 1-4.6 1.5-7 1.5-2.7-.1-5.4-.3-8.1-.8-.5 0-.6.2-.6.5 0 1.4 4 4.5 11.4 4.5 3.8 0 7.1-.8 9.6-2.6-1.9-.4-4.3-1.6-5.3-3.1z"/><path d="m273.2 19.5c10.1 0 18.5-4.9 18.5-7.8 0-.4-.3-.8-.7-.8-.1 0-.2 0-.3 0-2.3.5-6.4 3.7-16.9 3.7-.3 2.2-1.7 3.5-5.2 4.6 1.6.2 3.1.3 4.6.3z"/><path d="m276.5 55.7c-2.9-2.1-6-3.9-9.2-5.6h-36.1c3.6 1.6 7 3.5 10.3 5.6z"/><path d="m171.1 10.7c4.6 0 8.3 3.7 8.4 8.3v.1c0 3.2-1.8 5.7-4.5 7.5.3.4.7.7 1 1.1.5.6 1 1.1 1.5 1.6.8.8 1.6 1.6 2.5 2.2l.6.5c.9.6 1.8 1.2 2.8 1.7.4.2.9.4 1.3.6s1 .4 1.5.5c1 .3 2.1.4 3.2.5.3 0 .5.1.8.1v5.2c0 4.1 4.1 6.3 8.9 6.3s8.9-2.2 8.9-6.3v-5.3c.3 0 .5 0 .8-.1 1.1-.1 2.1-.3 3.2-.5.5-.1 1-.3 1.5-.5s.9-.4 1.3-.6c1-.5 1.9-1 2.8-1.7l.6-.5c.9-.7 1.7-1.4 2.5-2.2.5-.5 1-1 1.5-1.6.3-.4.7-.7 1-1.1-2.6-1.8-4.5-4.3-4.5-7.5-.1-4.6 3.6-8.4 8.2-8.4h.1c2.2.1 4.4.9 6.2 2.2.7-1 1.3-2 2-3-2.4-1.7-5.2-2.6-8.1-2.7-6.6-.1-12 5.2-12.1 11.7v.2c.1 3 1.3 5.9 3.3 8.1-2.2 2.2-5.5 5.2-10.5 5.1v-25.9c0-4.1-4.1-6.3-8.9-6.3s-8.9 2.2-8.9 6.3v25.9c-5 .1-8.3-2.9-10.5-5.1 2.1-2.2 3.2-5.1 3.3-8.1 0-6.6-5.3-11.9-11.9-11.9-.1 0-.1 0-.2 0-2.9.1-5.7 1-8.1 2.7.7 1 1.3 2 2 3 2.2-1.2 4.3-2 6.5-2.1zm28-7.9c1.9-.1 3.7.4 5.2 1.6l-5.2 5-5.2-5c1.5-1.2 3.3-1.7 5.2-1.6zm-6.2 3.8 6.2 5.9 6.2-6v.1 4.2l-6.2 6-6.2-6zm0 7.4 6.2 6 6.2-6v4.3l-6.2 6-6.2-6zm0 7.4 6.2 6 6.2-6v4.3l-6.2 6-6.2-6zm0 7.4 6.2 6 6.2-6v4.3l-6.2 6-6.2-6zm0 7.4 6.2 6 6.2-6v4.2c0 2.4-2.5 3.8-6.2 3.8s-6.2-1.5-6.2-3.8z"/><path d="m235.2 14.5c2.8 1.6 6 2.3 9.2 2.2 3.9 0 8.8-1.1 8.8-2.8 0-.8-1.4-.6-4.1-.5-4 .3-8-.5-11.6-2.2-.8.9-1.5 2.1-2.3 3.3 0-.1 0-.1 0 0z"/><path d="m171.3 25.9c-.8-1-1.6-2.1-2.7-3.5-3 1.9-5.7 3-11.6 2.8-1.1 0-1.6 0-1.6.6 0 .9 3.3 2.9 7.4 2.9 3-.1 6-1 8.5-2.8z"/><path d="m222.1 19.2c.1 2.1 1.2 3.9 3 4.9.6-.9 1.4-1.8 2.2-2.9-1.6-.9-2.3-2.3-1.3-3.4s2.2-.7 3.6.4c.6-.9 1.3-1.8 2-2.8-1.1-.9-2.5-1.5-4-1.5-2.9-.1-5.3 2.1-5.4 5-.1.1-.1.2-.1.3z"/><path d="m270.7 38.8c0-.5-.5-.9-1.6-.7-3.9.6-7.9.3-11.7-1-1.1 2-3 3.1-5.5 3.8 2.7 1 5.6 1.5 8.5 1.5 6.2 0 10.3-2.2 10.3-3.6z"/><path d="m241.2 25.1c-5.9.3-8.6-.9-11.6-2.8-1 1.4-1.9 2.6-2.7 3.5 2.5 1.8 5.4 2.7 8.5 2.8 4.1 0 7.4-2 7.4-2.9 0-.6-.5-.6-1.6-.6z"/><path d="m244.5 39.7c6.4 0 9.8-2.5 9.8-3.6 0-.5-.3-.6-.8-.6-.8 0-3.6.3-5.5.3-3.1 0-6.2-.7-9-2.1-1.7 1.9-3.1 2.3-5.5 2.7 3.3 2.1 7.1 3.3 11 3.3z"/><path d="m248.9 33.1c7.4 0 11.4-3.1 11.4-4.5 0-.3-.2-.5-.6-.5-2.7.5-5.4.7-8.1.8-2.4 0-4.8-.5-7-1.5-1 1.5-3.4 2.6-5.3 3.1 2.5 1.9 5.9 2.6 9.6 2.6z"/><path d="m216.1 35.9c-1.1.6-2.3 1-3.5 1.4 1.6 3.2 4 5.4 7.4 5.8 1.9.2 3.6-.6 3.6-1.4 0-.5-1.5-.7-2.4-1.1-2.2-1-4-2.6-5.1-4.7z"/><path d="m262.3 75.4h35.1c-1.5-2-3.2-3.9-4.9-5.7h-34.8c1.6 1.8 3.1 3.7 4.6 5.7z"/><path d="m230.1 37.2c0-.5-1-.5-1.8-.6-2.9-.3-5.5-1.8-7.2-4-.9.8-1.9 1.6-2.9 2.2 1.5 2.3 3.7 3.9 6.3 4.5 3.3.6 5.6-1.2 5.6-2.1z"/><path d="m279.3 30.5c0-.4-.3-.8-.7-.8h-.1c-1.9 0-3.6 1.4-9.5 1.4-2.1-.1-4.1-.4-6.1-1-.8 2.2-3.2 3.6-5.6 4.3 2.8.8 5.7 1.2 8.6 1.2 8 0 13.4-3.2 13.4-5.1z"/><path d="m246.2 18.9c-5.3.3-8.5-.3-12.5-2.4-.8 1.2-1.7 2.4-2.5 3.5 2.7 1.8 5.9 2.8 9.1 2.7 4.1 0 8-1.7 8-3 .2-.6-.7-.9-2.1-.8z"/><path d="m135.3 30.1c-2 .6-4.1.9-6.1 1-6 0-7.7-1.4-9.5-1.4-.4 0-.8.3-.8.7v.1c0 1.9 5.4 5.1 13.4 5.1 2.9 0 5.8-.4 8.6-1.2-2.4-.7-4.8-2.1-5.6-4.3z"/><path d="m230.8 34.3c3.8 0 6.5-1.7 6.5-2.6 0-.6-.6-.6-1.5-.5-3.8.3-7.5-.7-10.6-2.9l-.3.4c-.7.8-1.4 1.6-2.1 2.3 2.4 2 4.9 3.3 8 3.3z"/><path d="m246.2 42.5c0-.6-1.7-.3-4.2-.5-3.5-.2-6.9-1.4-9.8-3.4-1 1.6-2.7 2.6-4.6 2.7 3.5 2.2 7.5 3.5 11.6 3.6 4.4.1 7-1.4 7-2.4z"/><path d="m264.9 20.9c-2.8.6-5.6 1-8.5 1.1-2 0-3.9-.3-5.8-.8-.8 1.4-2.8 2.7-5.9 3.3 2.5 1.2 5.3 1.8 8.1 1.8 6.8 0 13.2-2.2 13.2-4.6 0-.5-.2-.9-1.1-.8z"/><path d="m286.7 20.9c0-.5-.2-.9-1.1-.7-5.2 2.2-10.9 3-16.6 2.3-.3 2-2.9 4-6.4 4.7 2.5.4 4.9.6 7.4.6 9.2 0 16.7-3.9 16.7-6.9z"/><path d="m135.2 168.4h-35.1c1 2 2 4 3.2 5.9h35.6c-1.3-1.9-2.6-3.9-3.7-5.9z"/><path d="m153.7 191.2h-36.9c2.2 2.1 4.4 4.1 6.8 5.9h37.6c-2.7-1.8-5.1-3.8-7.5-5.9z"/><path d="m171.2 218.3c18.5 3.5 37.4 3.5 55.9 0 5.6-1.1 11.1-2.6 16.5-4.5h-88.9c5.4 1.9 10.9 3.4 16.5 4.5z"/><path d="m170.1 202.5h-38.9c3.4 2.2 6.9 4.1 10.5 5.9h44.3c-5.6-1.2-10.9-3.2-15.9-5.9z"/><path d="m143 179.8h-36.1c1.5 2 3 4 4.7 5.9h36.5c-1.8-1.9-3.5-3.8-5.1-5.9z"/><path d="m137.7 42.4c2.9 0 5.8-.5 8.5-1.5-2.5-.7-4.4-1.7-5.5-3.8-3.8 1.3-7.7 1.6-11.7 1-1.1-.2-1.6.2-1.6.7.1 1.4 4.1 3.6 10.3 3.6z"/><path d="m140.5 69.7h-34.8c-1.7 1.8-3.3 3.7-4.9 5.7h35.1c1.5-2 3-3.9 4.6-5.7z"/><path d="m84.3 82.7h-10.4c-2.5 0-3.3.8-3.3 3.2v41l-36.5-42.3c-1.3-1.4-2-1.9-4.4-1.9h-26.4c-2.3 0-3.3 1.1-3.3 3.2v72.2c0 2.1 1.1 3.2 3.3 3.2h10.5c2.3 0 3.2-1.1 3.2-3.2v-46.6l40.7 47.4c1.4 1.6 2.1 2.4 5.2 2.4h21.5c2.5 0 3.2-.8 3.2-3.2v-72.2c-.1-2.4-.7-3.2-3.3-3.2z"/><path d="m212.3 208.5h44.3c3.6-1.8 7.1-3.7 10.5-5.9h-38.9c-5.1 2.6-10.4 4.6-15.9 5.9z"/><path d="m259.3 174.3h35.6c1.2-1.9 2.2-3.9 3.2-5.9h-35.1c-1.1 2-2.4 4-3.7 5.9z"/><path d="m124.9 19.5c1.5 0 3.1-.1 4.6-.2-3.5-1.1-4.9-2.4-5.2-4.6-10.5 0-14.6-3.3-16.9-3.7-.4-.1-.8.1-.9.5v.3c0 2.7 8.4 7.7 18.4 7.7z"/><path d="m372.3 85.2c-.4-1.6-1.9-2.7-3.6-2.5h-31.7c-2 0-3.3.6-3.9 2.5l-26.5 73.3c-.6 1.9-.1 2.8 1.8 2.8h11.8c2 0 2.8-.2 3.6-2.4l5-13.9h31.3l4.7 12.4c1.3 3.4 2.2 3.9 5 3.9h27.2c2.9 0 3.6-.9 2.5-4zm-38.4 46 10.4-28.8 10.8 28.8z"/><path d="m299.7 82.7h-33.1c-3 0-3.6 1.1-4.6 3.3l-15.7 38.2-16.2-38.2c-1-2.4-1.9-3.3-5-3.3h-31.1c-2.5 0-3.3.8-3.3 3.2v72.2c0 2.4.8 3.2 3.3 3.2h10.4c2.5 0 3.3-.8 3.3-3.2v-46.6l20 46.5c1.4 2.9 1.9 3.3 4.1 3.3h14c2.9 0 3.6-.6 4.7-3.1l19-46.5v46.5c0 2.4.8 3.2 3.3 3.2h27.1c2.5 0 3-.8 3-3.2v-72.3c0-2.4-.7-3.2-3.2-3.2z"/><path d="m250.1 185.7h36.5c1.7-1.9 3.2-3.9 4.7-5.9h-36.1c-1.6 2.1-3.3 4-5.1 5.9z"/><path d="m237.1 197.1h37.6c2.4-1.9 4.6-3.8 6.8-5.9h-36.9c-2.4 2.1-4.9 4.1-7.5 5.9z"/><path d="m129.3 158.1v-34.5l22 34.9c1.5 2.3 2.2 2.8 4.7 2.8h28.2c2.4 0 3-1.8 1.7-3.9l-20.8-32.4c11.3-3.1 20-8.8 20-22 0-12.4-8.8-20.3-21.4-20.3h-64.5c-2.5 0-3.3.8-3.3 3.2v72.2c0 2.4.8 3.2 3.3 3.2h27c2.3-.1 3.1-.9 3.1-3.2zm0-65.7h10.5c7.5 0 12.4 4.1 12.4 12.9s-4.9 12.7-12.4 12.7h-10.5z"/><path d="m151.9 18.9c-1.4-.1-2.2.2-2.2.8 0 1.3 4 3 8 3 3.3.1 6.5-.8 9.1-2.7-.8-1.1-1.6-2.3-2.5-3.5-3.8 2.1-7 2.7-12.4 2.4z"/><path d="m147.5 21.2c-1.9.5-3.8.8-5.8.8-2.9-.1-5.7-.5-8.5-1.1-.9-.1-1.1.3-1.1.8 0 2.4 6.4 4.6 13.2 4.6 2.8 0 5.5-.6 8.1-1.8-3.1-.6-5.1-1.9-5.9-3.3z"/><path d="m170.6 13.9c-1.5.1-2.9.6-4 1.5.7 1 1.3 1.9 2 2.8 1.3-1.1 2.7-1.5 3.6-.4s.2 2.5-1.3 3.4c.8 1.1 1.5 2.1 2.2 2.9 1.8-1 2.9-2.9 3-4.9.1-2.9-2.2-5.3-5.1-5.3-.2 0-.3 0-.4 0z"/><path d="m175.5 30.9c-.7-.7-1.4-1.5-2.1-2.3l-.3-.4c-3.1 2.2-6.8 3.3-10.6 2.9-.9-.1-1.6-.1-1.5.5 0 1 2.7 2.6 6.5 2.6 3 .1 5.5-1.2 8-3.3z"/><path d="m140.6 19.3c2.5 0 5-.4 7.3-1.2-3.6-.8-4.8-2.2-5.3-3.4-5.9 1.3-11.5-.3-13.8-.9-.6-.2-1.9-.6-1.9.3 0 3 6.5 5.2 13.7 5.2z"/><path d="m164.6 36.4c-2.4-.4-3.8-.8-5.5-2.7-2.8 1.4-5.9 2.1-9 2.1-1.9.1-4.7-.3-5.5-.3-.5 0-.8.1-.8.6 0 1.1 3.3 3.6 9.8 3.6 3.9 0 7.7-1.2 11-3.3z"/><path d="m129.2 22.5c-5.6.7-11.4-.1-16.6-2.3-.9-.2-1.1.2-1.1.7 0 3 7.5 6.9 16.6 6.9 2.5 0 5-.2 7.4-.6-3.4-.8-6-2.7-6.3-4.7z"/><path d="m178.2 43c3.4-.4 5.7-2.6 7.4-5.8-1.2-.3-2.4-.8-3.5-1.4-1.1 2.1-2.9 3.7-5.1 4.6-.9.5-2.4.7-2.4 1.1-.1.9 1.7 1.7 3.6 1.5z"/><path d="m153.8 16.6c3.2.2 6.4-.6 9.2-2.2-.8-1.1-1.5-2.3-2.3-3.4-3.6 1.8-7.6 2.6-11.6 2.2-2.7-.1-4.1-.2-4.1.5 0 1.8 4.9 2.9 8.8 2.9z"/><path d="m173.6 39.3c2.6-.7 4.8-2.3 6.3-4.5-1-.7-2-1.4-2.9-2.2-1.7 2.3-4.4 3.8-7.2 4-.8.1-1.8.1-1.8.6 0 .9 2.4 2.7 5.6 2.1z"/><path d="m144.5 65.5c2-2 4.2-3.9 6.4-5.7h-34.7c-2.2 1.8-4.3 3.7-6.4 5.7z"/><path d="m166 38.7c-2.9 2-6.3 3.1-9.8 3.4-2.5.2-4.2-.1-4.2.5 0 1 2.6 2.4 7.1 2.4 4.1-.1 8.1-1.4 11.6-3.6-2-.1-3.7-1.1-4.7-2.7z"/><path d="m166.9 50h-36.1c-3.2 1.7-6.2 3.6-9.2 5.6h35c3.3-2.1 6.8-4 10.3-5.6z"/></g></svg>